  0
SECTION
  2
HEADER
  9
$ACADVER
  1
AC1024
  9
$ACADMAINTVER
 70
     6
  9
$DWGCODEPAGE
  3
ANSI_1252
  9
$INSBASE
 10
0.0
 20
0.0
 30
0.0
  9
$EXTMIN
 10
1.000000000000000E+20
 20
1.000000000000000E+20
 30
1.000000000000000E+20
  9
$EXTMAX
 10
-1.000000000000000E+20
 20
-1.000000000000000E+20
 30
-1.000000000000000E+20
  9
$LIMMIN
 10
0.0
 20
0.0
  9
$LIMMAX
 10
12.0
 20
9.0
  9
$ORTHOMODE
 70
     0
  9
$REGENMODE
 70
     1
  9
$FILLMODE
 70
     1
  9
$QTEXTMODE
 70
     0
  9
$MIRRTEXT
 70
     1
  9
$LTSCALE
 40
1.0
  9
$ATTMODE
 70
     1
  9
$TEXTSIZE
 40
0.2
  9
$TRACEWID
 40
0.05
  9
$TEXTSTYLE
  7
Standard
  9
$CLAYER
  8
0
  9
$CELTYPE
  6
ByLayer
  9
$CECOLOR
 62
   256
  9
$CELTSCALE
 40
1.0
  9
$DISPSILH
 70
     0
  9
$DIMSCALE
 40
1.0
  9
$DIMASZ
 40
0.18
  9
$DIMEXO
 40
0.0625
  9
$DIMDLI
 40
0.38
  9
$DIMRND
 40
0.0
  9
$DIMDLE
 40
0.0
  9
$DIMEXE
 40
0.18
  9
$DIMTP
 40
0.0
  9
$DIMTM
 40
0.0
  9
$DIMTXT
 40
0.18
  9
$DIMCEN
 40
0.09
  9
$DIMTSZ
 40
0.0
  9
$DIMTOL
 70
     0
  9
$DIMLIM
 70
     0
  9
$DIMTIH
 70
     1
  9
$DIMTOH
 70
     1
  9
$DIMSE1
 70
     0
  9
$DIMSE2
 70
     0
  9
$DIMTAD
 70
     0
  9
$DIMZIN
 70
     0
  9
$DIMBLK
  1

  9
$DIMASO
 70
     1
  9
$DIMSHO
 70
     1
  9
$DIMPOST
  1

  9
$DIMAPOST
  1

  9
$DIMALT
 70
     0
  9
$DIMALTD
 70
     2
  9
$DIMALTF
 40
25.4
  9
$DIMLFAC
 40
1.0
  9
$DIMTOFL
 70
     0
  9
$DIMTVP
 40
0.0
  9
$DIMTIX
 70
     0
  9
$DIMSOXD
 70
     0
  9
$DIMSAH
 70
     0
  9
$DIMBLK1
  1

  9
$DIMBLK2
  1

  9
$DIMSTYLE
  2
Standard
  9
$DIMCLRD
 70
     0
  9
$DIMCLRE
 70
     0
  9
$DIMCLRT
 70
     0
  9
$DIMTFAC
 40
1.0
  9
$DIMGAP
 40
0.09
  9
$DIMJUST
 70
     0
  9
$DIMSD1
 70
     0
  9
$DIMSD2
 70
     0
  9
$DIMTOLJ
 70
     1
  9
$DIMTZIN
 70
     0
  9
$DIMALTZ
 70
     0
  9
$DIMALTTZ
 70
     0
  9
$DIMUPT
 70
     0
  9
$DIMDEC
 70
     4
  9
$DIMTDEC
 70
     4
  9
$DIMALTU
 70
     2
  9
$DIMALTTD
 70
     2
  9
$DIMTXSTY
  7
Standard
  9
$DIMAUNIT
 70
     0
  9
$DIMADEC
 70
     0
  9
$DIMALTRND
 40
0.0
  9
$DIMAZIN
 70
     0
  9
$DIMDSEP
 70
    46
  9
$DIMATFIT
 70
     3
  9
$DIMFRAC
 70
     0
  9
$DIMLDRBLK
  1

  9
$DIMLUNIT
 70
     2
  9
$DIMLWD
 70
    -2
  9
$DIMLWE
 70
    -2
  9
$DIMTMOVE
 70
     0
  9
$DIMFXL
 40
1.0
  9
$DIMFXLON
 70
     0
  9
$DIMJOGANG
 40
0.7853981633974483
  9
$DIMTFILL
 70
     0
  9
$DIMTFILLCLR
 70
     0
  9
$DIMARCSYM
 70
     0
  9
$DIMLTYPE
  6

  9
$DIMLTEX1
  6

  9
$DIMLTEX2
  6

  9
$DIMTXTDIRECTION
 70
     0
  9
$LUNITS
 70
     2
  9
$LUPREC
 70
     4
  9
$SKETCHINC
 40
0.1
  9
$FILLETRAD
 40
0.5
  9
$AUNITS
 70
     0
  9
$AUPREC
 70
     0
  9
$MENU
  1
.
  9
$ELEVATION
 40
0.0
  9
$PELEVATION
 40
0.0
  9
$THICKNESS
 40
0.0
  9
$LIMCHECK
 70
     0
  9
$CHAMFERA
 40
0.5
  9
$CHAMFERB
 40
0.5
  9
$CHAMFERC
 40
1.0
  9
$CHAMFERD
 40
0.0
  9
$SKPOLY
 70
     0
  9
$TDCREATE
 40
2459084.670848438
  9
$TDUCREATE
 40
2459084.629181771
  9
$TDUPDATE
 40
2459084.670848461
  9
$TDUUPDATE
 40
2459084.629181794
  9
$TDINDWG
 40
0.0000000116
  9
$TDUSRTIMER
 40
0.0000000116
  9
$USRTIMER
 70
     1
  9
$ANGBASE
 50
0.0
  9
$ANGDIR
 70
     0
  9
$PDMODE
 70
     0
  9
$PDSIZE
 40
0.0
  9
$PLINEWID
 40
0.0
  9
$SPLFRAME
 70
     0
  9
$SPLINETYPE
 70
     6
  9
$SPLINESEGS
 70
     8
  9
$HANDSEED
  5
57
  9
$SURFTAB1
 70
     6
  9
$SURFTAB2
 70
     6
  9
$SURFTYPE
 70
     6
  9
$SURFU
 70
     6
  9
$SURFV
 70
     6
  9
$UCSBASE
  2

  9
$UCSNAME
  2

  9
$UCSORG
 10
0.0
 20
0.0
 30
0.0
  9
$UCSXDIR
 10
1.0
 20
0.0
 30
0.0
  9
$UCSYDIR
 10
0.0
 20
1.0
 30
0.0
  9
$UCSORTHOREF
  2

  9
$UCSORTHOVIEW
 70
     0
  9
$UCSORGTOP
 10
0.0
 20
0.0
 30
0.0
  9
$UCSORGBOTTOM
 10
0.0
 20
0.0
 30
0.0
  9
$UCSORGLEFT
 10
0.0
 20
0.0
 30
0.0
  9
$UCSORGRIGHT
 10
0.0
 20
0.0
 30
0.0
  9
$UCSORGFRONT
 10
0.0
 20
0.0
 30
0.0
  9
$UCSORGBACK
 10
0.0
 20
0.0
 30
0.0
  9
$PUCSBASE
  2

  9
$PUCSNAME
  2

  9
$PUCSORG
 10
0.0
 20
0.0
 30
0.0
  9
$PUCSXDIR
 10
1.0
 20
0.0
 30
0.0
  9
$PUCSYDIR
 10
0.0
 20
1.0
 30
0.0
  9
$PUCSORTHOREF
  2

  9
$PUCSORTHOVIEW
 70
     0
  9
$PUCSORGTOP
 10
0.0
 20
0.0
 30
0.0
  9
$PUCSORGBOTTOM
 10
0.0
 20
0.0
 30
0.0
  9
$PUCSORGLEFT
 10
0.0
 20
0.0
 30
0.0
  9
$PUCSORGRIGHT
 10
0.0
 20
0.0
 30
0.0
  9
$PUCSORGFRONT
 10
0.0
 20
0.0
 30
0.0
  9
$PUCSORGBACK
 10
0.0
 20
0.0
 30
0.0
  9
$USERI1
 70
     0
  9
$USERI2
 70
     0
  9
$USERI3
 70
     0
  9
$USERI4
 70
     0
  9
$USERI5
 70
     0
  9
$USERR1
 40
0.0
  9
$USERR2
 40
0.0
  9
$USERR3
 40
0.0
  9
$USERR4
 40
0.0
  9
$USERR5
 40
0.0
  9
$WORLDVIEW
 70
     1
  9
$SHADEDGE
 70
     3
  9
$SHADEDIF
 70
    70
  9
$TILEMODE
 70
     1
  9
$MAXACTVP
 70
    64
  9
$PINSBASE
 10
0.0
 20
0.0
 30
0.0
  9
$PLIMCHECK
 70
     0
  9
$PEXTMIN
 10
1.000000000000000E+20
 20
1.000000000000000E+20
 30
1.000000000000000E+20
  9
$PEXTMAX
 10
-1.000000000000000E+20
 20
-1.000000000000000E+20
 30
-1.000000000000000E+20
  9
$PLIMMIN
 10
0.0
 20
0.0
  9
$PLIMMAX
 10
12.0
 20
9.0
  9
$UNITMODE
 70
     0
  9
$VISRETAIN
 70
     1
  9
$PLINEGEN
 70
     0
  9
$PSLTSCALE
 70
     1
  9
$TREEDEPTH
 70
  3020
  9
$CMLSTYLE
  2
Standard
  9
$CMLJUST
 70
     0
  9
$CMLSCALE
 40
1.0
  9
$PROXYGRAPHICS
 70
     1
  9
$MEASUREMENT
 70
     0
  9
$CELWEIGHT
370
    -1
  9
$ENDCAPS
280
     0
  9
$JOINSTYLE
280
     0
  9
$LWDISPLAY
290
     1
  9
$INSUNITS
 70
     1
  9
$HYPERLINKBASE
  1

  9
$STYLESHEET
  1

  9
$XEDIT
290
     1
  9
$CEPSNTYPE
380
     0
  9
$PSTYLEMODE
290
     1
  9
$FINGERPRINTGUID
  2
{8FFA277B-1412-4068-8A43-9B25C2F1990C}
  9
$VERSIONGUID
  2
{FAEB1C32-E019-11D5-929B-00C0DF256EC4}
  9
$EXTNAMES
290
     1
  9
$PSVPSCALE
 40
0.0
  9
$OLESTARTUP
290
     0
  9
$SORTENTS
280
   127
  9
$INDEXCTL
280
     0
  9
$HIDETEXT
280
     1
  9
$XCLIPFRAME
280
     2
  9
$HALOGAP
280
     0
  9
$OBSCOLOR
 70
   257
  9
$OBSLTYPE
280
     0
  9
$INTERSECTIONDISPLAY
280
     0
  9
$INTERSECTIONCOLOR
 70
   257
  9
$DIMASSOC
280
     2
  9
$PROJECTNAME
  1

  9
$CAMERADISPLAY
290
     0
  9
$LENSLENGTH
 40
50.0
  9
$CAMERAHEIGHT
 40
0.0
  9
$STEPSPERSEC
 40
2.0
  9
$STEPSIZE
 40
6.0
  9
$3DDWFPREC
 40
2.0
  9
$PSOLWIDTH
 40
0.25
  9
$PSOLHEIGHT
 40
4.0
  9
$LOFTANG1
 40
1.570796326794897
  9
$LOFTANG2
 40
1.570796326794897
  9
$LOFTMAG1
 40
0.0
  9
$LOFTMAG2
 40
0.0
  9
$LOFTPARAM
 70
     7
  9
$LOFTNORMALS
280
     1
  9
$LATITUDE
 40
37.795
  9
$LONGITUDE
 40
-122.394
  9
$NORTHDIRECTION
 40
0.0
  9
$TIMEZONE
 70
 -8000
  9
$LIGHTGLYPHDISPLAY
280
     1
  9
$TILEMODELIGHTSYNCH
280
     1
  9
$CMATERIAL
347
3C
  9
$SOLIDHIST
280
     1
  9
$SHOWHIST
280
     1
  9
$DWFFRAME
280
     2
  9
$DGNFRAME
280
     2
  9
$REALWORLDSCALE
290
     1
  9
$INTERFERECOLOR
 62
   256
  9
$CSHADOW
280
     0
  9
$SHADOWPLANELOCATION
 40
0.0
  0
ENDSEC
  0
SECTION
  2
CLASSES
  0
CLASS
  1
ACDBDICTIONARYWDFLT
  2
AcDbDictionaryWithDefault
  3
ObjectDBX Classes
 90
        0
 91
        4
280
     0
281
     0
  0
CLASS
  1
VISUALSTYLE
  2
AcDbVisualStyle
  3
ObjectDBX Classes
 90
     4095
 91
        4
280
     0
281
     0
  0
CLASS
  1
MATERIAL
  2
AcDbMaterial
  3
ObjectDBX Classes
 90
     1153
 91
        4
280
     0
281
     0
  0
CLASS
  1
SUN
  2
AcDbSun
  3
SCENEOE
 90
     1024
 91
        4
280
     0
281
     0
  0
ENDSEC
  0
SECTION
  2
TABLES
  0
TABLE
  2
VPORT
  5
8
330
0
100
AcDbSymbolTable
 70
     1
  0
VPORT
  5
29
330
8
100
AcDbSymbolTableRecord
100
AcDbViewportTableRecord
  2
*Active
 70
     0
 10
0.0
 20
0.0
 11
1.0
 21
1.0
 12
0.0
 22
0.0
 13
0.0
 23
0.0
 14
0.5
 24
0.5
 15
0.5
 25
0.5
 16
0.0
 26
0.0
 36
1.0
 17
2.5
 27
-2.5
 37
0.0
 40
5.0
 41
1.0
 42
50.0
 43
0.0
 44
0.0
 50
0.0
 51
0.0
 71
     0
 72
   100
 73
     1
 74
     3
 75
     0
 76
     0
 77
     0
 78
     0
281
     0
 65
     1
110
0.0
120
0.0
130
0.0
111
1.0
121
0.0
131
0.0
112
0.0
122
1.0
132
0.0
 79
     0
146
0.0
 60
     3
 61
     5
292
     1
282
     1
141
0.0
142
0.0
 63
   250
361
3F
  0
ENDTAB
  0
TABLE
  2
LTYPE
  5
5
330
0
100
AcDbSymbolTable
 70
     1
  0
LTYPE
  5
14
330
5
100
AcDbSymbolTableRecord
100
AcDbLinetypeTableRecord
  2
ByBlock
 70
     0
  3

 72
    65
 73
     0
 40
0.0
  0
LTYPE
  5
15
330
5
100
AcDbSymbolTableRecord
100
AcDbLinetypeTableRecord
  2
ByLayer
 70
     0
  3

 72
    65
 73
     0
 40
0.0
  0
LTYPE
  5
16
330
5
100
AcDbSymbolTableRecord
100
AcDbLinetypeTableRecord
  2
Continuous
 70
     0
  3
Solid line
 72
    65
 73
     0
 40
0.0
  0
ENDTAB
  0
TABLE
  2
LAYER
  5
2
330
0
100
AcDbSymbolTable
 70
     2
  0
LAYER
  5
10
330
2
100
AcDbSymbolTableRecord
100
AcDbLayerTableRecord
  2
0
 70
     0
 62
     7
  6
Continuous
370
    -3
390
F
347
3E
  0
LAYER
  5
40
330
2
100
AcDbSymbolTableRecord
100
AcDbLayerTableRecord
  2
Layer 1
 70
     0
 62
     7
  6
Continuous
370
    -3
390
F
347
3E
  0
ENDTAB
  0
TABLE
  2
STYLE
  5
3
330
0
100
AcDbSymbolTable
 70
     1
  0
STYLE
  5
11
330
3
100
AcDbSymbolTableRecord
100
AcDbTextStyleTableRecord
  2
Standard
 70
     0
 40
0.0
 41
1.0
 50
0.0
 71
     0
 42
0.2
  3
txt
  4

  0
ENDTAB
  0
TABLE
  2
VIEW
  5
6
330
0
100
AcDbSymbolTable
 70
     0
  0
ENDTAB
  0
TABLE
  2
UCS
  5
7
330
0
100
AcDbSymbolTable
 70
     0
  0
ENDTAB
  0
TABLE
  2
APPID
  5
9
330
0
100
AcDbSymbolTable
 70
     1
  0
APPID
  5
12
330
9
100
AcDbSymbolTableRecord
100
AcDbRegAppTableRecord
  2
ACAD
 70
     0
  0
ENDTAB
  0
TABLE
  2
DIMSTYLE
  5
A
330
0
100
AcDbSymbolTable
 70
     1
100
AcDbDimStyleTable
  0
DIMSTYLE
105
27
330
A
100
AcDbSymbolTableRecord
100
AcDbDimStyleTableRecord
  2
Standard
 70
     0
178
     0
340
11
  0
ENDTAB
  0
TABLE
  2
BLOCK_RECORD
  5
1
330
0
100
AcDbSymbolTable
 70
     3
  0
BLOCK_RECORD
  5
1F
330
1
100
AcDbSymbolTableRecord
100
AcDbBlockTableRecord
  2
*Model_Space
340
22
 70
     0
280
     1
281
     0
  0
BLOCK_RECORD
  5
1B
330
1
100
AcDbSymbolTableRecord
100
AcDbBlockTableRecord
  2
*Paper_Space
340
1E
 70
     0
280
     1
281
     0
  0
BLOCK_RECORD
  5
23
330
1
100
AcDbSymbolTableRecord
100
AcDbBlockTableRecord
  2
*Paper_Space0
340
26
 70
     0
280
     1
281
     0
  0
BLOCK_RECORD
  5
41
330
1
100
AcDbSymbolTableRecord
100
AcDbBlockTableRecord
  2
block 2
340
0
102
{BLKREFS
331
42
102
}
 70
     0
280
     1
281
     0
  0
BLOCK_RECORD
  5
45
330
1
100
AcDbSymbolTableRecord
100
AcDbBlockTableRecord
  2
block 3
340
0
102
{BLKREFS
331
46
102
}
 70
     0
280
     1
281
     0
  0
ENDTAB
  0
ENDSEC
  0
SECTION
  2
BLOCKS
  0
BLOCK
  5
20
330
1F
100
AcDbEntity
  8
0
100
AcDbBlockBegin
  2
*Model_Space
 70
     0
 10
0.0
 20
0.0
 30
0.0
  3
*Model_Space
  1

  0
ENDBLK
  5
21
330
1F
100
AcDbEntity
  8
0
100
AcDbBlockEnd
  0
BLOCK
  5
1C
330
1B
100
AcDbEntity
 67
     1
  8
0
100
AcDbBlockBegin
  2
*Paper_Space
 70
     0
 10
0.0
 20
0.0
 30
0.0
  3
*Paper_Space
  1

  0
ENDBLK
  5
1D
330
1B
100
AcDbEntity
 67
     1
  8
0
100
AcDbBlockEnd
  0
BLOCK
  5
24
330
23
100
AcDbEntity
  8
0
100
AcDbBlockBegin
  2
*Paper_Space0
 70
     0
 10
0.0
 20
0.0
 30
0.0
  3
*Paper_Space0
  1

  0
ENDBLK
  5
25
330
23
100
AcDbEntity
  8
0
100
AcDbBlockEnd
  0
BLOCK
  5
43
330
41
100
AcDbEntity
  8
0
100
AcDbBlockBegin
  2
block 2
 70
     0
 10
0.0
 20
0.0
 30
0.0
  3
block 2
  1

  0
INSERT
  5
46
330
41
100
AcDbEntity
  8
Layer 1
100
AcDbBlockReference
  2
block 3
 10
0.0
 20
0.0
 30
0.0
  0
SPLINE
  5
51
330
41
100
AcDbEntity
  8
Layer 1
370
     0
100
AcDbSpline
210
0.0
220
0.0
230
1.0
 70
    11
 71
     3
 72
    32
 73
    28
 74
     0
 42
0.0000000001
 43
0.0000000001
 12
1.0
 22
0.0
 32
0.0
 13
1.0
 23
0.0
 33
0.0
 40
0.0
 40
0.0
 40
0.0
 40
0.0
 40
1.0
 40
1.0
 40
1.0
 40
2.0
 40
2.0
 40
2.0
 40
3.0
 40
3.0
 40
3.0
 40
4.0
 40
4.0
 40
4.0
 40
5.0
 40
5.0
 40
5.0
 40
6.0
 40
6.0
 40
6.0
 40
7.0
 40
7.0
 40
7.0
 40
8.0
 40
8.0
 40
8.0
 40
9.0
 40
9.0
 40
9.0
 40
9.0
 10
2.629010872194435
 20
-3.958906245146105
 30
0.0
 10
2.638155983948132
 20
-3.998486673920095
 30
0.0
 10
2.657360166238226
 20
-4.007313759713043
 30
0.0
 10
2.698714541367079
 20
-3.997251087756442
 30
0.0
 10
2.906299187500432
 20
-3.946740666791053
 30
0.0
 10
3.114679781254936
 20
-3.899451756845236
 30
0.0
 10
3.323165078529352
 20
-3.852746248411879
 30
0.0
 10
3.351866146269433
 20
-3.846316782173794
 30
0.0
 10
3.372261739115503
 20
-3.831204323287415
 30
0.0
 10
3.393284046555487
 20
-3.813379700054687
 30
0.0
 10
3.410225678683219
 20
-3.799015069527008
 30
0.0
 10
3.408126084358779
 20
-3.788121728205144
 30
0.0
 10
3.39443051243509
 20
-3.772795388901942
 30
0.0
 10
3.356270473469244
 20
-3.730090599015991
 30
0.0
 10
3.307705867460122
 20
-3.729586273009722
 30
0.0
 10
3.257769570014261
 20
-3.738575526348793
 30
0.0
 10
3.15667292318143
 20
-3.756774189277495
 30
0.0
 10
3.055677464642334
 20
-3.77568980346248
 30
0.0
 10
2.955060143995221
 20
-3.796351856684598
 30
0.0
 10
2.858474536582712
 20
-3.816186001908363
 30
0.0
 10
2.762296193221118
 20
-3.838066822059469
 30
0.0
 10
2.666216527277558
 20
-3.860251643601107
 30
0.0
 10
2.641337012469547
 20
-3.865996039818735
 30
0.0
 10
2.613193610239477
 20
-3.871632993761295
 30
0.0
 10
2.614957500472554
 20
-3.915464170302307
 30
0.0
 10
2.618179958444317
 20
-3.925227359468787
 30
0.0
 10
2.625042935204621
 20
-3.941732551397889
 30
0.0
 10
2.629010872194435
 20
-3.958906245146105
 30
0.0
  0
SPLINE
  5
52
330
41
100
AcDbEntity
  8
Layer 1
370
     0
100
AcDbSpline
210
0.0
220
0.0
230
1.0
 70
    11
 71
     3
 72
    53
 73
    49
 74
     0
 42
0.0000000001
 43
0.0000000001
 12
1.0
 22
0.0
 32
0.0
 13
1.0
 23
0.0
 33
0.0
 40
0.0
 40
0.0
 40
0.0
 40
0.0
 40
1.0
 40
1.0
 40
1.0
 40
2.0
 40
2.0
 40
2.0
 40
3.0
 40
3.0
 40
3.0
 40
4.0
 40
4.0
 40
4.0
 40
5.0
 40
5.0
 40
5.0
 40
6.0
 40
6.0
 40
6.0
 40
7.0
 40
7.0
 40
7.0
 40
8.0
 40
8.0
 40
8.0
 40
9.0
 40
9.0
 40
9.0
 40
10.0
 40
10.0
 40
10.0
 40
11.0
 40
11.0
 40
11.0
 40
12.0
 40
12.0
 40
12.0
 40
13.0
 40
13.0
 40
13.0
 40
14.0
 40
14.0
 40
14.0
 40
15.0
 40
15.0
 40
15.0
 40
16.0
 40
16.0
 40
16.0
 40
16.0
 10
2.226282718313465
 20
-3.923700574615572
 30
0.0
 10
2.203822181228664
 20
-3.928106712028163
 30
0.0
 10
2.197156559304403
 20
-3.933866672313671
 30
0.0
 10
2.21017394368083
 20
-3.955032800508711
 30
0.0
 10
2.223786656703914
 20
-3.977166913313011
 30
0.0
 10
2.235300779752859
 20
-4.000594349952204
 30
0.0
 10
2.247641734195049
 20
-4.023505410984222
 30
0.0
 10
2.252053342934611
 20
-4.031696127227229
 30
0.0
 10
2.260355804777658
 20
-4.041068708496368
 30
0.0
 10
2.249960276887211
 20
-4.048938604114205
 30
0.0
 10
2.238967134653977
 20
-4.0572607069264
 30
0.0
 10
2.231936776288232
 20
-4.04364868999768
 30
0.0
 10
2.224465012271253
 20
-4.038982357678807
 30
0.0
 10
2.210230532515854
 20
-4.030092514159403
 30
0.0
 10
2.197102930870174
 20
-4.01960317981391
 30
0.0
 10
2.18499889276912
 20
-4.00797812096011
 30
0.0
 10
2.1497724672589
 20
-3.974145670471444
 30
0.0
 10
2.129763757512263
 20
-3.995250262353086
 30
0.0
 10
2.109572190463546
 20
-4.019561174941247
 30
0.0
 10
2.088445681678864
 20
-4.044998384604873
 30
0.0
 10
2.096228643323735
 20
-4.059677810957307
 30
0.0
 10
2.122476585430036
 20
-4.076599467219087
 30
0.0
 10
2.147249890192698
 20
-4.092570209139568
 30
0.0
 10
2.170818476757732
 20
-4.092962825303731
 30
0.0
 10
2.196820604125492
 20
-4.087175000316013
 30
0.0
 10
2.295738061871803
 20
-4.065154856653963
 30
0.0
 10
2.394902087619383
 20
-4.044155916672076
 30
0.0
 10
2.493449693363787
 20
-4.020584888954923
 30
0.0
 10
2.612692690522029
 20
-3.992063483515848
 30
0.0
 10
2.618503108156776
 20
-3.978819465876086
 30
0.0
 10
2.568134940077319
 20
-3.868514908483146
 30
0.0
 10
2.566695454994563
 20
-3.86536243163568
 30
0.0
 10
2.563493837291743
 20
-3.863014014618001
 30
0.0
 10
2.560080050585839
 20
-3.859107684611293
 30
0.0
 10
2.536728152600315
 20
-3.882112632117342
 30
0.0
 10
2.518013591086704
 20
-3.912242157216042
 30
0.0
 10
2.491249664008301
 20
-3.923901652331349
 30
0.0
 10
2.459147866116357
 20
-3.937886469395936
 30
0.0
 10
2.437666570584421
 20
-3.893555736482363
 30
0.0
 10
2.405202704405471
 20
-3.890110554745206
 30
0.0
 10
2.404347751203532
 20
-3.891406890980306
 30
0.0
 10
2.402740539618915
 20
-3.892759960753235
 30
0.0
 10
2.402962249949989
 20
-3.893664684957583
 30
0.0
 10
2.410037897888565
 20
-3.922533520557307
 30
0.0
 10
2.417290813656968
 20
-3.951359178420287
 30
0.0
 10
2.427702411152394
 20
-3.992901181814911
 30
0.0
 10
2.367513705735341
 20
-3.92499992325093
 30
0.0
 10
2.302086309097894
 20
-3.908829107748058
 30
0.0
 10
2.226282718313465
 20
-3.923700574615572
 30
0.0
  0
SPLINE
  5
53
330
41
100
AcDbEntity
  8
Layer 1
370
     0
100
AcDbSpline
210
0.0
220
0.0
230
1.0
 70
    11
 71
     3
 72
    26
 73
    22
 74
     0
 42
0.0000000001
 43
0.0000000001
 12
1.0
 22
0.0
 32
0.0
 13
1.0
 23
0.0
 33
0.0
 40
0.0
 40
0.0
 40
0.0
 40
0.0
 40
1.0
 40
1.0
 40
1.0
 40
2.0
 40
2.0
 40
2.0
 40
3.0
 40
3.0
 40
3.0
 40
4.0
 40
4.0
 40
4.0
 40
5.0
 40
5.0
 40
5.0
 40
6.0
 40
6.0
 40
6.0
 40
7.0
 40
7.0
 40
7.0
 40
7.0
 10
3.479048532633391
 20
-3.704238682253112
 30
0.0
 10
3.46564949513893
 20
-3.727734650997718
 30
0.0
 10
3.446136475128317
 20
-3.750390411109695
 30
0.0
 10
3.441817266617363
 20
-3.775587381854443
 30
0.0
 10
3.43831861231019
 20
-3.796002418257153
 30
0.0
 10
3.469326923801418
 20
-3.800982417914762
 30
0.0
 10
3.484524752702252
 20
-3.813317443783161
 30
0.0
 10
3.492802105787531
 20
-3.820035096310549
 30
0.0
 10
3.503386953711545
 20
-3.823900005813938
 30
0.0
 10
3.512899155503798
 20
-3.829109700989597
 30
0.0
 10
3.521347248141915
 20
-3.833736747752886
 30
0.0
 10
3.529680844844556
 20
-3.832658559501548
 30
0.0
 10
3.534122584093463
 20
-3.824538885697418
 30
0.0
 10
3.544974589200087
 20
-3.804702732206831
 30
0.0
 10
3.568919807131654
 20
-3.783101814244396
 30
0.0
 10
3.560445601385481
 20
-3.763784044627805
 30
0.0
 10
3.547657208879855
 20
-3.734631039272446
 30
0.0
 10
3.514053656185903
 20
-3.720080393030129
 30
0.0
 10
3.488986076782213
 20
-3.697979416628414
 30
0.0
 10
3.485054045315969
 20
-3.70035871074856
 30
0.0
 10
3.480620340869614
 20
-3.701482587070106
 30
0.0
 10
3.479048532633391
 20
-3.704238682253112
 30
0.0
  0
HATCH
  5
54
330
41
100
AcDbEntity
  8
Layer 1
 62
     7
420
 16777215
100
AcDbHatch
 10
0.0
 20
0.0
 30
0.0
210
0.0
220
0.0
230
1.0
  2
SOLID
 70
     1
 71
     0
 91
       11
 92
        1
 93
        1
 72
     4
 94
        3
 73
     0
 74
     1
 95
      221
 96
      217
 40
0.0
 40
0.0
 40
0.0
 40
0.0
 40
1.0
 40
1.0
 40
1.0
 40
2.0
 40
2.0
 40
2.0
 40
3.0
 40
3.0
 40
3.0
 40
4.0
 40
4.0
 40
4.0
 40
5.0
 40
5.0
 40
5.0
 40
6.0
 40
6.0
 40
6.0
 40
7.0
 40
7.0
 40
7.0
 40
8.0
 40
8.0
 40
8.0
 40
9.0
 40
9.0
 40
9.0
 40
10.0
 40
10.0
 40
10.0
 40
11.0
 40
11.0
 40
11.0
 40
12.0
 40
12.0
 40
12.0
 40
13.0
 40
13.0
 40
13.0
 40
14.0
 40
14.0
 40
14.0
 40
15.0
 40
15.0
 40
15.0
 40
16.0
 40
16.0
 40
16.0
 40
17.0
 40
17.0
 40
17.0
 40
18.0
 40
18.0
 40
18.0
 40
19.0
 40
19.0
 40
19.0
 40
20.0
 40
20.0
 40
20.0
 40
21.0
 40
21.0
 40
21.0
 40
22.0
 40
22.0
 40
22.0
 40
23.0
 40
23.0
 40
23.0
 40
24.0
 40
24.0
 40
24.0
 40
25.0
 40
25.0
 40
25.0
 40
26.0
 40
26.0
 40
26.0
 40
27.0
 40
27.0
 40
27.0
 40
28.0
 40
28.0
 40
28.0
 40
29.0
 40
29.0
 40
29.0
 40
30.0
 40
30.0
 40
30.0
 40
31.0
 40
31.0
 40
31.0
 40
32.0
 40
32.0
 40
32.0
 40
33.0
 40
33.0
 40
33.0
 40
34.0
 40
34.0
 40
34.0
 40
35.0
 40
35.0
 40
35.0
 40
36.0
 40
36.0
 40
36.0
 40
37.0
 40
37.0
 40
37.0
 40
38.0
 40
38.0
 40
38.0
 40
39.0
 40
39.0
 40
39.0
 40
40.0
 40
40.0
 40
40.0
 40
41.0
 40
41.0
 40
41.0
 40
42.0
 40
42.0
 40
42.0
 40
43.0
 40
43.0
 40
43.0
 40
44.0
 40
44.0
 40
44.0
 40
45.0
 40
45.0
 40
45.0
 40
46.0
 40
46.0
 40
46.0
 40
47.0
 40
47.0
 40
47.0
 40
48.0
 40
48.0
 40
48.0
 40
49.0
 40
49.0
 40
49.0
 40
50.0
 40
50.0
 40
50.0
 40
51.0
 40
51.0
 40
51.0
 40
52.0
 40
52.0
 40
52.0
 40
53.0
 40
53.0
 40
53.0
 40
54.0
 40
54.0
 40
54.0
 40
55.0
 40
55.0
 40
55.0
 40
56.0
 40
56.0
 40
56.0
 40
57.0
 40
57.0
 40
57.0
 40
58.0
 40
58.0
 40
58.0
 40
59.0
 40
59.0
 40
59.0
 40
60.0
 40
60.0
 40
60.0
 40
61.0
 40
61.0
 40
61.0
 40
62.0
 40
62.0
 40
62.0
 40
63.0
 40
63.0
 40
63.0
 40
64.0
 40
64.0
 40
64.0
 40
65.0
 40
65.0
 40
65.0
 40
66.0
 40
66.0
 40
66.0
 40
67.0
 40
67.0
 40
67.0
 40
68.0
 40
68.0
 40
68.0
 40
69.0
 40
69.0
 40
69.0
 40
70.0
 40
70.0
 40
70.0
 40
71.0
 40
71.0
 40
71.0
 40
72.0
 40
72.0
 40
72.0
 40
72.0
 10
2.454893689287966
 20
-1.063843265432448
 10
2.526690675595596
 20
-0.9624879215587548
 10
2.555338512769241
 20
-0.8556170611270898
 10
2.567344265295231
 20
-0.7422671553700739
 10
2.578958070112523
 20
-0.6326164771034857
 10
2.601535614008526
 20
-0.5265604709357805
 10
2.665973976677555
 20
-0.4323812920087877
 10
2.720104441020718
 20
-0.3532668756311573
 10
2.789353892765398
 20
-0.3170474069043697
 10
2.885629155931913
 20
-0.3266423723451402
 10
3.007988311344207
 20
-0.3388369399193733
 10
3.120074533374842
 20
-0.3721551896650984
 10
3.196057469331208
 20
-0.5018371036443467
 10
3.243370542506959
 20
-0.5825874696106944
 10
3.253486309211464
 20
-0.6797671860013754
 10
3.229641258948327
 20
-0.7702689101561064
 10
3.151401371925532
 20
-1.067221300488515
 10
3.080233597068804
 20
-1.3658833721104
 10
3.007937932413471
 20
-1.664285675004231
 10
3.004392073641661
 20
-1.67892079396985
 10
2.999596803083452
 20
-1.693389854372413
 10
2.997639826503145
 20
-1.708233582054403
 10
2.995810653499878
 20
-1.722106187210165
 10
2.985105283538562
 20
-1.739100643144323
 10
3.002013018843324
 20
-1.749487650193108
 10
3.017437328739232
 20
-1.758963280653663
 10
3.030164706963433
 20
-1.747764180707804
 10
3.042555125658459
 20
-1.738472432178355
 10
3.073257110304919
 20
-1.715448782687506
 10
3.104263162007985
 20
-1.692819130044263
 10
3.135469581597944
 20
-1.670481554707306
 10
3.304111548785891
 20
-1.549768024847203
 10
3.482138416364124
 20
-1.449795121648726
 10
3.690556171080137
 20
-1.414848266505171
 10
3.735142796596316
 20
-1.407372116701582
 10
3.770144404922727
 20
-1.378613610260547
 10
3.802391582522129
 20
-1.348614873538774
 10
3.891875468891789
 20
-1.265369185054308
 10
3.997098194621811
 20
-1.206144616632855
 10
4.104297794894743
 20
-1.149943311593246
 10
4.126356536039136
 20
-1.138378622576763
 10
4.149541113407546
 20
-1.129081691518447
 10
4.173479624301586
 20
-1.12220580691356
 10
4.248186089491885
 20
-1.10074778740011
 10
4.328002454482607
 20
-1.082210587556107
 10
4.38851937596827
 20
-1.145541317079594
 10
4.46537025303913
 20
-1.225964997910018
 10
4.49790266612677
 20
-1.324902639560567
 10
4.444134270070586
 20
-1.432478715439275
 10
4.380358527519042
 20
-1.560078466723313
 10
4.288067773122394
 20
-1.667212347350654
 10
4.186630400446676
 20
-1.766321193747987
 10
4.047443014819363
 20
-1.902313492090874
 10
3.88838556264606
 20
-2.011663871708897
 10
3.719962041650761
 20
-2.107708981549018
 10
3.551531992378411
 20
-2.203757856889448
 10
3.426885339461251
 20
-2.340370458647726
 10
3.340630228256537
 20
-2.512699583809952
 10
3.287532989295414
 20
-2.618783015371517
 10
3.267790977414001
 20
-2.728780810007013
 10
3.296544020282656
 20
-2.847319512413024
 10
3.325610922623405
 20
-2.967152040720596
 10
3.354705695685248
 20
-3.086874867452934
 10
3.387783722079146
 20
-3.205681171413289
 10
3.395489599837649
 20
-3.233357598586053
 10
3.403902540214883
 20
-3.236990804304646
 10
3.429165465753992
 20
-3.224030705387172
 10
3.536425057180622
 20
-3.169006453700755
 10
3.645547718433565
 20
-3.117571476896147
 10
3.75223985193462
 20
-3.061497403727294
 10
3.826753605832588
 20
-3.022335698586201
 10
3.908169255065407
 20
-3.003509452274885
 10
3.988459529775102
 20
-2.997306167087875
 10
4.139871867383666
 20
-2.985607761802839
 10
4.292422133894231
 20
-2.980261002416404
 10
4.444495836182417
 20
-2.994627390177609
 10
4.493366517948667
 20
-2.999243893540021
 10
4.538182135335672
 20
-3.013940892227184
 10
4.57538477736792
 20
-3.047775418583367
 10
4.607998737759746
 20
-3.077437254793065
 10
4.625315880047538
 20
-3.113310265816911
 10
4.624842237866637
 20
-3.167749766876416
 10
4.623657311149903
 20
-3.303942914058123
 10
4.646410029813296
 20
-3.441505826988456
 10
4.712944379059587
 20
-3.560346719617907
 10
4.7368357312966
 20
-3.603020461198639
 10
4.742740027736065
 20
-3.650249467425965
 10
4.728359381884704
 20
-3.689175425903891
 10
4.698717488991128
 20
-3.769413718603118
 10
4.671988714173595
 20
-3.851177038922009
 10
4.621007892404628
 20
-3.922078397088221
 10
4.606441799849208
 20
-3.942336537645259
 10
4.588836543253643
 20
-3.955852926473072
 10
4.567489579575825
 20
-3.964757330538784
 10
4.408673171477099
 20
-4.031002773106138
 10
4.256382027346616
 20
-4.11487904115759
 10
4.083182820624112
 20
-4.142565509664488
 10
4.059727725644178
 20
-4.146314943825498
 10
4.036784849322682
 20
-4.148130417034685
 10
4.013923325376355
 20
-4.145543267298282
 10
3.983971590411986
 20
-4.142152810832108
 10
3.975241777511731
 20
-4.146371175296584
 10
3.988018619988704
 20
-4.179046178595146
 10
4.021715577261577
 20
-4.265222414227158
 10
4.016036478430022
 20
-4.350546140592289
 10
3.973556477690408
 20
-4.433441370300064
 10
3.957853962758438
 20
-4.464083003438948
 10
3.935595048998544
 20
-4.486890387696121
 10
3.90440294140045
 20
-4.500822738789894
 10
3.802989640629549
 20
-4.546119443656885
 10
3.697160412907603
 20
-4.558423903742955
 10
3.587604398173324
 20
-4.538962319376651
 10
3.569353557143485
 20
-4.535720230995467
 10
3.552053243415179
 20
-4.528310463171439
 10
3.536467133958518
 20
-4.518276643989666
 10
3.384276790246834
 20
-4.420301559555431
 10
3.236184507876613
 20
-4.317109810148799
 10
3.11299598795914
 20
-4.183006480772696
 10
3.096662992119617
 20
-4.165226290443494
 10
3.079961148628551
 20
-4.167914355587881
 10
3.060920173263993
 20
-4.171076873769506
 10
2.852637503664735
 20
-4.20566525328488
 10
2.647006569973226
 20
-4.253225530285337
 10
2.441136851995338
 20
-4.299327805571314
 10
1.859543700201849
 20
-4.429569431862723
 10
1.278307971575158
 20
-4.561405622012671
 10
0.6968581907885133
 20
-4.692288387487805
 10
0.5908910056966886
 20
-4.716141298881312
 10
0.4958341407886513
 20
-4.700951402985841
 10
0.423717401286126
 20
-4.606921619241954
 10
0.41608446354644
 20
-4.596969373897182
 10
0.4111487805352125
 20
-4.585159258262112
 10
0.4083902449074483
 20
-4.572924087354775
 10
0.381252585285362
 20
-4.452558085857314
 10
0.3529235213889529
 20
-4.332458994778285
 10
0.3260728012441834
 20
-4.212029786678815
 10
0.3043400060887001
 20
-4.114555182785605
 10
0.3641037306571585
 20
-4.006388975418405
 10
0.4580504397001479
 20
-3.972512307202628
 10
0.5221365828805852
 20
-3.949403195325607
 10
0.5909837292139551
 20
-3.941484685136781
 10
0.65739927578343
 20
-3.925326768676591
 10
1.28064145397818
 20
-3.773700866206329
 10
1.910223719052763
 20
-3.651554563483766
 10
2.537866834765029
 20
-3.520385117919482
 10
2.584666546190722
 20
-3.510604858485016
 10
2.631062257703964
 20
-3.498893399465588
 10
2.683563665843242
 20
-3.486706232242164
 10
2.632681772579897
 20
-3.429495731084115
 10
2.574641372477319
 20
-3.393759376045257
 10
2.507067177050835
 20
-3.372003821537343
 10
2.46014719467544
 20
-3.356897638484699
 10
2.411006844850779
 20
-3.349824773762798
 10
2.365176833650025
 20
-3.330554700483288
 10
2.240661750623568
 20
-3.278200690573208
 10
2.149966657783024
 20
-3.186214287985017
 10
2.071501036500194
 20
-3.080369338108842
 10
2.034619952254717
 20
-3.030619113063747
 10
2.000335362010762
 20
-2.978877647013759
 10
1.966260366415806
 20
-2.927136592320898
 10
1.924605086132323
 20
-2.86388528156456
 10
1.854955740025831
 20
-2.825060144639918
 10
1.779292619863567
 20
-2.821746093463541
 10
1.645203479199924
 20
-2.815872977559719
 10
1.513250696111476
 20
-2.796894146357772
 10
1.38821390052658
 20
-2.744595158148539
 10
1.270206756425611
 20
-2.695236227173533
 10
1.174253387533617
 20
-2.61795862184009
 10
1.098401964565647
 20
-2.515325141649403
 10
1.082063444799473
 20
-2.493217638380517
 10
1.065991956672128
 20
-2.470614344239329
 10
1.058579976923258
 20
-2.443862723939181
 10
1.012698367225286
 20
-2.278265309172083
 10
0.9101204292279969
 20
-2.152454923628536
 10
0.7789517764810195
 20
-2.047476791920417
 10
0.6230005287310025
 20
-1.922664766021916
 10
0.4870587011326203
 20
-1.778165951477869
 10
0.356774881009326
 20
-1.627592380823583
 10
0.3025394620586894
 20
-1.564911109802703
 10
0.2833834885835181
 20
-1.496757437202215
 10
0.3133708779839708
 20
-1.418590546215632
 10
0.3452509655448415
 20
-1.335489971225065
 10
0.4054888841271173
 20
-1.283349841731731
 10
0.4938227493873278
 20
-1.268026640345435
 10
0.5847185867462106
 20
-1.252258984407578
 10
0.6677960591117653
 20
-1.276681642774911
 10
0.7448632481307919
 20
-1.324367436451881
 10
0.8442702011097556
 20
-1.385876005164
 10
0.9311437410182685
 20
-1.464152095659162
 10
1.023585901224187
 20
-1.534923418548487
 10
1.120036172432378
 20
-1.60876362417874
 10
1.225405074399191
 20
-1.666330467181423
 10
1.334044266521295
 20
-1.719182652780647
 10
1.353258241226892
 20
-1.728529879681117
 10
1.362916827076914
 20
-1.723478712067908
 10
1.375176931319111
 20
-1.708919154141553
 10
1.497017680555852
 20
-1.564224659098828
 10
1.61945928236595
 20
-1.420036121779124
 10
1.741668879254298
 20
-1.275652029477429
 10
1.799586748618961
 20
-1.207225232588826
 10
1.808772285472653
 20
-1.121044352839767
 10
1.826003421577449
 20
-1.038387353784022
 10
1.847502293239788
 20
-0.9352609696046177
 10
1.859633087379482
 20
-0.8303095729486105
 10
1.897253288053346
 20
-0.7306353994402394
 10
1.967967835813675
 20
-0.5432786646649169
 10
2.078676366207118
 20
-0.490629878840006
 10
2.278044673536543
 20
-0.5111532988928881
 10
2.332928149525135
 20
-0.5168031810531046
 10
2.391794627758208
 20
-0.5767524560928147
 10
2.403516400233886
 20
-0.6330623123385016
 10
2.431251282975103
 20
-0.7662976368816317
 10
2.436662471361349
 20
-0.9022059018096039
 10
2.45156225930753
 20
-1.036978680123411
 10
2.452266308875298
 20
-1.043347898356779
 10
2.453133816456127
 20
-1.049699167705386
 10
2.454893689287966
 20
-1.063843265432448
 97
        0
 97
        0
 92
        1
 93
        1
 72
     4
 94
        3
 73
     0
 74
     1
 95
      224
 96
      220
 40
0.0
 40
0.0
 40
0.0
 40
0.0
 40
1.0
 40
1.0
 40
1.0
 40
2.0
 40
2.0
 40
2.0
 40
3.0
 40
3.0
 40
3.0
 40
4.0
 40
4.0
 40
4.0
 40
5.0
 40
5.0
 40
5.0
 40
6.0
 40
6.0
 40
6.0
 40
7.0
 40
7.0
 40
7.0
 40
8.0
 40
8.0
 40
8.0
 40
9.0
 40
9.0
 40
9.0
 40
10.0
 40
10.0
 40
10.0
 40
11.0
 40
11.0
 40
11.0
 40
12.0
 40
12.0
 40
12.0
 40
13.0
 40
13.0
 40
13.0
 40
14.0
 40
14.0
 40
14.0
 40
15.0
 40
15.0
 40
15.0
 40
16.0
 40
16.0
 40
16.0
 40
17.0
 40
17.0
 40
17.0
 40
18.0
 40
18.0
 40
18.0
 40
19.0
 40
19.0
 40
19.0
 40
20.0
 40
20.0
 40
20.0
 40
21.0
 40
21.0
 40
21.0
 40
22.0
 40
22.0
 40
22.0
 40
23.0
 40
23.0
 40
23.0
 40
24.0
 40
24.0
 40
24.0
 40
25.0
 40
25.0
 40
25.0
 40
26.0
 40
26.0
 40
26.0
 40
27.0
 40
27.0
 40
27.0
 40
28.0
 40
28.0
 40
28.0
 40
29.0
 40
29.0
 40
29.0
 40
30.0
 40
30.0
 40
30.0
 40
31.0
 40
31.0
 40
31.0
 40
32.0
 40
32.0
 40
32.0
 40
33.0
 40
33.0
 40
33.0
 40
34.0
 40
34.0
 40
34.0
 40
35.0
 40
35.0
 40
35.0
 40
36.0
 40
36.0
 40
36.0
 40
37.0
 40
37.0
 40
37.0
 40
38.0
 40
38.0
 40
38.0
 40
39.0
 40
39.0
 40
39.0
 40
40.0
 40
40.0
 40
40.0
 40
41.0
 40
41.0
 40
41.0
 40
42.0
 40
42.0
 40
42.0
 40
43.0
 40
43.0
 40
43.0
 40
44.0
 40
44.0
 40
44.0
 40
45.0
 40
45.0
 40
45.0
 40
46.0
 40
46.0
 40
46.0
 40
47.0
 40
47.0
 40
47.0
 40
48.0
 40
48.0
 40
48.0
 40
49.0
 40
49.0
 40
49.0
 40
50.0
 40
50.0
 40
50.0
 40
51.0
 40
51.0
 40
51.0
 40
52.0
 40
52.0
 40
52.0
 40
53.0
 40
53.0
 40
53.0
 40
54.0
 40
54.0
 40
54.0
 40
55.0
 40
55.0
 40
55.0
 40
56.0
 40
56.0
 40
56.0
 40
57.0
 40
57.0
 40
57.0
 40
58.0
 40
58.0
 40
58.0
 40
59.0
 40
59.0
 40
59.0
 40
60.0
 40
60.0
 40
60.0
 40
61.0
 40
61.0
 40
61.0
 40
62.0
 40
62.0
 40
62.0
 40
63.0
 40
63.0
 40
63.0
 40
64.0
 40
64.0
 40
64.0
 40
65.0
 40
65.0
 40
65.0
 40
66.0
 40
66.0
 40
66.0
 40
67.0
 40
67.0
 40
67.0
 40
68.0
 40
68.0
 40
68.0
 40
69.0
 40
69.0
 40
69.0
 40
70.0
 40
70.0
 40
70.0
 40
71.0
 40
71.0
 40
71.0
 40
72.0
 40
72.0
 40
72.0
 40
73.0
 40
73.0
 40
73.0
 40
73.0
 10
3.803476280857644
 20
-3.091839554076008
 10
3.788319630319544
 20
-3.13790367229232
 10
3.788318123794069
 20
-3.137936808694955
 10
3.750963322689813
 20
-3.136481066280667
 10
3.733862249950233
 20
-3.13581457272835
 10
3.715411832568305
 20
-3.138466489069868
 10
3.705119752759881
 20
-3.150927784714819
 10
3.663112298841472
 20
-3.201785886874152
 10
3.603419240302678
 20
-3.211763458524097
 10
3.544702410265902
 20
-3.225701081318296
 10
3.522148217514642
 20
-3.231054618605261
 10
3.49827179757939
 20
-3.238211328467084
 10
3.488897693954868
 20
-3.263071161418768
 10
3.45019806778464
 20
-3.365704139542736
 10
3.367380094430574
 20
-3.408501058669243
 10
3.267487914707772
 20
-3.43188933410536
 10
2.868559720227166
 20
-3.525292568938109
 10
2.472404285866711
 20
-3.62959818229337
 10
2.07644545307955
 20
-3.734790445451633
 10
1.66950549204023
 20
-3.842900406111665
 10
1.266912561699554
 20
-3.967442332905294
 10
0.8553565303495689
 20
-4.05809719411751
 10
0.8452117472984734
 20
-4.060331820339621
 10
0.8364925603213148
 20
-4.066407038089841
 10
0.830156499488655
 20
-4.074638958317286
 10
0.785545005139612
 20
-4.132598986228459
 10
0.7233371080778347
 20
-4.163855545191078
 10
0.6566766457349078
 20
-4.187956858494696
 10
0.603878577622595
 20
-4.207046438793315
 10
0.5506967221478539
 20
-4.225076658342106
 10
0.49793317857748
 20
-4.244258116847984
 10
0.4872286874226827
 20
-4.24814963588685
 10
0.4724718938520027
 20
-4.24915678169926
 10
0.4723212413053943
 20
-4.266152743833522
 10
0.4718689070342508
 20
-4.317172762505556
 10
0.5367816996812532
 20
-4.381082841789572
 10
0.58878206255934
 20
-4.378506235453945
 10
0.6568289303507602
 20
-4.375133351322498
 10
0.7205218140016996
 20
-4.353978268595053
 10
0.7817762606421689
 20
-4.325388080017193
 10
0.8502622806069363
 20
-4.293421994907678
 10
0.8638773789619891
 20
-4.299452820181133
 10
0.8878735676717799
 20
-4.372321275701728
 10
0.9007866251597028
 20
-4.41153368958016
 10
0.916470057435769
 20
-4.449614445103053
 10
0.9401187409380832
 20
-4.487407014336668
 10
0.954971852447885
 20
-4.464869158396014
 10
0.9371232992130368
 20
-4.455452674498019
 10
0.9390949960702275
 20
-4.440720399657013
 10
0.9422497320909365
 20
-4.417148602634496
 10
0.9357707257934685
 20
-4.393143174600608
 10
0.9243860175098714
 20
-4.3722632705891
 10
0.8758475081277891
 20
-4.283242156344209
 10
0.8662120059439454
 20
-4.265884488368126
 10
0.9153669041633066
 20
-4.255027949760157
 10
1.094599619833288
 20
-4.215445512719346
 10
1.273358407700458
 20
-4.173716740510043
 10
1.452261570924773
 20
-4.132644169485603
 10
1.629861087445849
 20
-4.091870830217961
 10
1.807376238540857
 20
-4.050728471921401
 10
1.98506062266319
 20
-4.010329423383129
 10
2.048350510751978
 20
-3.995939689520128
 10
2.061518045499838
 20
-4.004581512698552
 10
2.078966372359307
 20
-4.067316253823643
 10
2.081167657152693
 20
-4.075231335445046
 10
2.081548054832865
 20
-4.083855335255395
 10
2.084838055362992
 20
-4.091230193101031
 10
2.098503998952538
 20
-4.121862286972474
 10
2.083959248841173
 20
-4.130405956109901
 10
2.055674735392447
 20
-4.136795759078217
 10
1.752328300188891
 20
-4.205324349991441
 10
1.449180224171666
 20
-4.274739088640924
 10
1.146185939295795
 20
-4.344810028475296
 10
1.107739158316273
 20
-4.353701127773269
 10
1.067546439865434
 20
-4.357916981904256
 10
1.028405150646083
 20
-4.375771478105965
 10
1.043859088876161
 20
-4.39086962809122
 10
1.057916854630649
 20
-4.391009202635536
 10
1.073557350930931
 20
-4.388783540927458
 10
1.267515976399586
 20
-4.361186942360948
 10
1.462331438226998
 20
-4.338665736126257
 10
1.655363299446486
 20
-4.305692505204307
 10
2.097008521339957
 20
-4.230251961948422
 10
2.538003175319722
 20
-4.150923916187341
 10
2.978777625493851
 20
-4.070519941475165
 10
3.096943456943892
 20
-4.048964711582938
 10
3.219661255089426
 20
-4.042648712420386
 10
3.329903515851129
 20
-3.989099030649767
 10
3.393055054684636
 20
-3.958423508008208
 10
3.452021967948793
 20
-3.955270529094024
 10
3.514476487666697
 20
-3.987300878741912
 10
3.537307378928567
 20
-3.999009576394478
 10
3.563345160732347
 20
-4.009611719026806
 10
3.589120304929894
 20
-3.994466374771137
 10
3.611238107471182
 20
-3.981469373950782
 10
3.623907986640107
 20
-3.987177872398964
 10
3.633121896390094
 20
-4.009755059071418
 10
3.63826718303158
 20
-4.022363460261254
 10
3.646813199824969
 20
-4.033556786439982
 10
3.652321559103762
 20
-4.046051218487542
 10
3.660298324123333
 20
-4.064145508015523
 10
3.670053798000607
 20
-4.07016818694923
 10
3.690255007431688
 20
-4.061554232885126
 10
3.729751027073285
 20
-4.044712820490127
 10
3.770075545147797
 20
-4.029573315229451
 10
3.812102359253281
 20
-4.020780384254597
 10
3.888964520642831
 20
-4.004699134841303
 10
3.962804945569208
 20
-3.981940628298617
 10
4.03324551882795
 20
-3.94797775915481
 10
4.065052288816156
 20
-3.932642131617538
 10
4.079585237811342
 20
-3.914216283504326
 10
4.068579064932035
 20
-3.877854353349701
 10
4.062728222197241
 20
-3.858523781032141
 10
4.05960117750505
 20
-3.837183184656775
 10
4.064300030433464
 20
-3.811962616776782
 10
4.070760513806741
 20
-3.818923018556537
 10
4.073856423639401
 20
-3.821402726017924
 10
4.075876172114072
 20
-3.824568758666449
 10
4.093288091274821
 20
-3.85186436824266
 10
4.095343996360725
 20
-3.896495337046467
 10
4.12484628456112
 20
-3.905951261388837
 10
4.155206790102006
 20
-3.915682318286119
 10
4.188410109197169
 20
-3.886712818311808
 10
4.221488386678654
 20
-3.879039983876105
 10
4.259613022296005
 20
-3.870197082981879
 10
4.296182421457362
 20
-3.831703126559887
 10
4.338107518650329
 20
-3.870375567695924
 10
4.339578389680229
 20
-3.871732151935728
 10
4.344978279125522
 20
-3.871689476265727
 10
4.345832981239886
 20
-3.870441589467772
 10
4.375223284380606
 20
-3.827526433632
 10
4.41926655637869
 20
-3.840845259210912
 10
4.459885495992643
 20
-3.839491185304647
 10
4.468622841520224
 20
-3.839200237648457
 10
4.477345121793077
 20
-3.832015663084424
 10
4.485687255473421
 20
-3.827319582149079
 10
4.54240291751623
 20
-3.79539265824264
 10
4.568521549520028
 20
-3.737452152093915
 10
4.60298482607987
 20
-3.687070260205322
 10
4.655018551915569
 20
-3.611002047035097
 10
4.661752960274876
 20
-3.529291921788096
 10
4.616921026775925
 20
-3.442217058431298
 10
4.599703270005395
 20
-3.408775854782713
 10
4.590392980692741
 20
-3.372041737845014
 10
4.587087002136766
 20
-3.334573941599956
 10
4.58193786576746
 20
-3.276217001571593
 10
4.559184075672698
 20
-3.224526798106833
 10
4.537186824177827
 20
-3.171642554941046
 10
4.516923554485174
 20
-3.122927022449908
 10
4.482420103912798
 20
-3.088902212812096
 10
4.435239241544246
 20
-3.069990113094036
 10
4.373436043002786
 20
-3.045216133549123
 10
4.306073765491899
 20
-3.055930739123596
 10
4.241592969022197
 20
-3.046855130311112
 10
4.225646899139873
 20
-3.044610390068227
 10
4.211104910991935
 20
-3.057365143702908
 10
4.199786887341158
 20
-3.070199725943843
 10
4.197551203549639
 20
-3.072734660742854
 10
4.193561924115683
 20
-3.073724736287229
 10
4.190489616515379
 20
-3.075369255783016
 10
4.179762150847233
 20
-3.065953496777158
 10
4.187771342399603
 20
-3.049512820419775
 10
4.173890718931109
 20
-3.041382603214843
 10
4.139425433670643
 20
-3.058588178198912
 10
4.110972189369678
 20
-3.111175900160712
 10
4.062265718879265
 20
-3.065428335002555
 10
4.060865654546155
 20
-3.064113673332688
 10
4.056956220961916
 20
-3.065445907337309
 10
4.05421836201506
 20
-3.065581214314584
 10
4.026833746444709
 20
-3.066934033054117
 10
3.999456161326482
 20
-3.069140867260709
 10
3.972061502253053
 20
-3.069378846879393
 10
3.95105501333046
 20
-3.069561599160377
 10
3.945468816902576
 20
-3.075898685124558
 10
3.953805426656193
 20
-3.096487436607554
 10
3.969219190873825
 20
-3.134553130129309
 10
3.982674471985749
 20
-3.173417109713707
 10
3.996531493221861
 20
-3.212096830816942
 10
3.997664902547462
 20
-3.215261106232042
 10
3.995637119270238
 20
-3.219557542069348
 10
3.99528509448631
 20
-3.22193357275589
 10
3.981727369642815
 20
-3.224204922534176
 10
3.975155403385037
 20
-3.206408164003682
 10
3.958708664872802
 20
-3.213637924571281
 10
3.981169955220366
 20
-3.373120417891641
 10
4.003557425820039
 20
-3.533065063614963
 10
4.026393338833486
 20
-3.69294594686658
 10
4.029164341340573
 20
-3.712348063689786
 10
4.030809467149462
 20
-3.731396976585226
 10
4.021629203134883
 20
-3.7492361597524
 10
4.007588887967055
 20
-3.776517962494179
 10
3.967132150928288
 20
-3.783049348273607
 10
3.955271778109818
 20
-3.758855004740856
 10
3.934744866460556
 20
-3.716982641453594
 10
3.918623537449043
 20
-3.673021178602362
 10
3.917149151192992
 20
-3.625508597938985
 10
3.916268838145697
 20
-3.597131285644537
 10
3.92755020301014
 20
-3.573433235050793
 10
3.954322667066183
 20
-3.56233505051283
 10
3.974336355706681
 20
-3.554038649228182
 10
3.975906155242203
 20
-3.541435017672054
 10
3.973221526861809
 20
-3.523485379829556
 10
3.967343064493535
 20
-3.484187614611124
 10
3.962899316544078
 20
-3.444677224142626
 10
3.957222226413099
 20
-3.405347075621623
 10
3.946455591082844
 20
-3.330751761665422
 10
3.935263613396021
 20
-3.256217699847361
 10
3.924186633819772
 20
-3.181667320861404
 10
3.919439572076473
 20
-3.149720314286671
 10
3.891277589365624
 20
-3.137714393144152
 10
3.86827394985034
 20
-3.135511575471203
 10
3.849213389654677
 20
-3.133685809894561
 10
3.856426131410646
 20
-3.163470917232846
 10
3.85142145381264
 20
-3.178891394043451
 10
3.846228460531417
 20
-3.194891757899591
 10
3.849659823367776
 20
-3.213400698052636
 10
3.836142774711789
 20
-3.231322220159604
 10
3.825531813679693
 20
-3.186014465435973
 10
3.815647500097359
 20
-3.14380923192266
 10
3.803476280857644
 20
-3.091839554076008
 97
        0
 97
        0
 92
        1
 93
        1
 72
     4
 94
        3
 73
     0
 74
     1
 95
      158
 96
      154
 40
0.0
 40
0.0
 40
0.0
 40
0.0
 40
1.0
 40
1.0
 40
1.0
 40
2.0
 40
2.0
 40
2.0
 40
3.0
 40
3.0
 40
3.0
 40
4.0
 40
4.0
 40
4.0
 40
5.0
 40
5.0
 40
5.0
 40
6.0
 40
6.0
 40
6.0
 40
7.0
 40
7.0
 40
7.0
 40
8.0
 40
8.0
 40
8.0
 40
9.0
 40
9.0
 40
9.0
 40
10.0
 40
10.0
 40
10.0
 40
11.0
 40
11.0
 40
11.0
 40
12.0
 40
12.0
 40
12.0
 40
13.0
 40
13.0
 40
13.0
 40
14.0
 40
14.0
 40
14.0
 40
15.0
 40
15.0
 40
15.0
 40
16.0
 40
16.0
 40
16.0
 40
17.0
 40
17.0
 40
17.0
 40
18.0
 40
18.0
 40
18.0
 40
19.0
 40
19.0
 40
19.0
 40
20.0
 40
20.0
 40
20.0
 40
21.0
 40
21.0
 40
21.0
 40
22.0
 40
22.0
 40
22.0
 40
23.0
 40
23.0
 40
23.0
 40
24.0
 40
24.0
 40
24.0
 40
25.0
 40
25.0
 40
25.0
 40
26.0
 40
26.0
 40
26.0
 40
27.0
 40
27.0
 40
27.0
 40
28.0
 40
28.0
 40
28.0
 40
29.0
 40
29.0
 40
29.0
 40
30.0
 40
30.0
 40
30.0
 40
31.0
 40
31.0
 40
31.0
 40
32.0
 40
32.0
 40
32.0
 40
33.0
 40
33.0
 40
33.0
 40
34.0
 40
34.0
 40
34.0
 40
35.0
 40
35.0
 40
35.0
 40
36.0
 40
36.0
 40
36.0
 40
37.0
 40
37.0
 40
37.0
 40
38.0
 40
38.0
 40
38.0
 40
39.0
 40
39.0
 40
39.0
 40
40.0
 40
40.0
 40
40.0
 40
41.0
 40
41.0
 40
41.0
 40
42.0
 40
42.0
 40
42.0
 40
43.0
 40
43.0
 40
43.0
 40
44.0
 40
44.0
 40
44.0
 40
45.0
 40
45.0
 40
45.0
 40
46.0
 40
46.0
 40
46.0
 40
47.0
 40
47.0
 40
47.0
 40
48.0
 40
48.0
 40
48.0
 40
49.0
 40
49.0
 40
49.0
 40
50.0
 40
50.0
 40
50.0
 40
51.0
 40
51.0
 40
51.0
 40
51.0
 10
2.110462798101518
 20
-1.963919336227314
 10
2.088781134682638
 20
-1.98212000742285
 10
2.067360853432092
 20
-2.000643256477032
 10
2.045371105555419
 20
-2.01846361214272
 10
1.966170550932765
 20
-2.082647066748184
 10
1.883938867072553
 20
-2.102776176161758
 10
1.794022647897931
 20
-2.037986978075423
 10
1.77091882443915
 20
-2.021339199201798
 10
1.742530109645688
 20
-2.018060954644435
 10
1.715180144161018
 20
-2.028188895272883
 10
1.614195231300237
 20
-2.065585584908743
 10
1.521859783314792
 20
-2.042427758090702
 10
1.439472174068859
 20
-1.981813495698791
 10
1.280540767859545
 20
-1.864884419152481
 10
1.116082798522054
 20
-1.7552932985489
 10
0.9634479154978205
 20
-1.629987866594977
 10
0.8692116090056868
 20
-1.552624658888135
 10
0.7763006682922524
 20
-1.473495054992655
 10
0.6855534747793525
 20
-1.392084813084782
 10
0.6142656940792222
 20
-1.32813193261408
 10
0.5397338618756622
 20
-1.325690758772427
 10
0.4585680447826361
 20
-1.366987879131178
 10
0.4500262964780606
 20
-1.371333768539039
 10
0.4414329496763053
 20
-1.375682293797089
 10
0.4325381722375394
 20
-1.379209563440655
 10
0.4102483747055506
 20
-1.388048949867943
 10
0.3987751789317397
 20
-1.404942741427526
 10
0.3918082519143
 20
-1.427354120570309
 10
0.3691002680217126
 20
-1.500401060804936
 10
0.3960875375004333
 20
-1.560494177955964
 10
0.4438723910371007
 20
-1.611752803830073
 10
0.5732753959379503
 20
-1.750562826044175
 10
0.724166224647724
 20
-1.84434474468997
 10
0.9240377114827727
 20
-1.826162147895856
 10
0.9502049289328498
 20
-1.823781598608965
 10
0.9591440233290692
 20
-1.829183083266369
 10
0.9506301457456376
 20
-1.856877208290522
 10
0.9426252226821058
 20
-1.882915517318022
 10
0.938008726479173
 20
-1.910177739458264
 10
0.9339866801163528
 20
-1.937211646763937
 10
0.9288120162282717
 20
-1.97199281989448
 10
0.9442427288574132
 20
-1.991488572158346
 10
0.9801186241292549
 20
-1.99591905980617
 10
1.013148441708255
 20
-1.999998351793074
 10
1.045867161778536
 20
-1.996312931137077
 10
1.078677403270869
 20
-1.995128053710712
 10
1.183272046088683
 20
-1.991350897934164
 10
1.217989769179199
 20
-2.021596341041762
 10
1.232917215349529
 20
-2.127278045953782
 10
1.24231855406635
 20
-2.193836618178036
 10
1.302478783224008
 20
-2.232195459740119
 10
1.366507367575511
 20
-2.211731611320526
 10
1.396247345804037
 20
-2.202226568961186
 10
1.424860407664217
 20
-2.19171691177995
 10
1.461351945586519
 20
-2.19688531678326
 10
1.42559933431533
 20
-2.23578293483696
 10
1.385430594728177
 20
-2.25887775228336
 10
1.344485994526041
 20
-2.281058055224674
 10
1.309611938689095
 20
-2.29994982124112
 10
1.273463990026863
 20
-2.316665881186762
 10
1.243319670890375
 20
-2.343520676195036
 10
1.219093611503227
 20
-2.365103017689383
 10
1.215882201384905
 20
-2.388446358155319
 10
1.230572205659946
 20
-2.416895968055453
 10
1.256443516399738
 20
-2.467000719122312
 10
1.300373547900297
 20
-2.492939493425335
 10
1.351546075034813
 20
-2.508634098657454
 10
1.43286329793716
 20
-2.533574262282071
 10
1.516297691294388
 20
-2.535846365160473
 10
1.600006272286426
 20
-2.526244088373283
 10
1.73650024146808
 20
-2.510586134010699
 10
1.870715339794856
 20
-2.481487853926309
 10
1.974934260655977
 20
-2.386333410422771
 10
2.021269962238155
 20
-2.344027763568179
 10
2.068286613330934
 20
-2.328143879187855
 10
2.125735702188118
 20
-2.327112634173571
 10
2.15860532589257
 20
-2.326522454760556
 10
2.191506586631804
 20
-2.327188195212834
 10
2.224386002751784
 20
-2.327747246490061
 10
2.313804888611382
 20
-2.329267554778476
 10
2.402258665946129
 20
-2.332816231057475
 10
2.488277995382822
 20
-2.295418159340998
 10
2.575363338293148
 20
-2.25755662378909
 10
2.67676502451761
 20
-2.281781868242951
 10
2.736701396607082
 20
-2.355436359789021
 10
2.767940042689916
 20
-2.393824846005411
 10
2.768252339321937
 20
-2.40207256853585
 10
2.739763342913925
 20
-2.411303949083112
 10
2.700878414111407
 20
-2.42390431720566
 10
2.662796965557365
 20
-2.438983639689468
 10
2.624378055298949
 20
-2.453021926858216
 10
2.7287878027191
 20
-2.453748668415276
 10
2.828832894776699
 20
-2.474111740913902
 10
2.92981856090023
 20
-2.482043390736597
 10
3.053017442844571
 20
-2.491719722362909
 10
3.1707920798486
 20
-2.478934342659171
 10
3.274880184081793
 20
-2.403970762774065
 10
3.326731777570052
 20
-2.366627292209046
 10
3.326975583607994
 20
-2.367328428364102
 10
3.273360602061757
 20
-2.334807810577697
 10
3.187213458515442
 20
-2.282555720208923
 10
3.101242327361105
 20
-2.230014439417434
 10
3.007229112181726
 20
-2.172741179921129
 10
3.03401789693031
 20
-2.162098369885598
 10
3.052578792846387
 20
-2.154487038621394
 10
3.071312437015952
 20
-2.147327065325953
 10
3.122454708097318
 20
-2.127780353291428
 10
3.175696824590709
 20
-2.113744576456194
 10
3.224858516859487
 20
-2.089003231247173
 10
3.285661382491551
 20
-2.058402767578173
 10
3.3257018163265
 20
-2.011163060169578
 10
3.344402568023345
 20
-1.944958285005416
 10
3.35221867322846
 20
-1.917287129533078
 10
3.346960899352199
 20
-1.908977423480703
 10
3.319006063892907
 20
-1.918575934767583
 10
3.256840545976906
 20
-1.939920547676593
 10
3.194246923740997
 20
-1.960070743891833
 10
3.132456028490853
 20
-1.982442836314855
 10
3.005654290894603
 20
-2.028352820052406
 10
2.883551155139179
 20
-2.035797967236906
 10
2.771958294297216
 20
-1.94337903418145
 10
2.771145021633149
 20
-1.942705511695244
 10
2.769285467032963
 20
-1.943295440074874
 10
2.765810414958095
 20
-1.943295440074874
 10
2.764120595560446
 20
-1.950451145803312
 10
2.762176173358992
 20
-1.958086827302749
 10
2.760521255134613
 20
-1.965784514040416
 10
2.741378338213508
 20
-2.054824789197306
 10
2.695511417138808
 20
-2.091474152541157
 10
2.604841433056031
 20
-2.090118572434739
 10
2.476258480183851
 20
-2.088195907983795
 10
2.304724988451565
 20
-1.957229297368776
 10
2.269764056312738
 20
-1.829350145962798
 10
2.260535583483273
 20
-1.79559431856276
 10
2.248127588657831
 20
-1.794329738046827
 10
2.219714016194176
 20
-1.801948098244907
 10
2.156252384202263
 20
-1.818963389947385
 10
2.093453372327796
 20
-1.838885145811357
 10
2.028296899186658
 20
-1.849307423046235
 10
1.946942264235228
 20
-1.862320490001176
 10
1.883145681414703
 20
-1.837400911111495
 10
1.83802197956993
 20
-1.766386964486489
 10
1.812935317510323
 20
-1.726906446987009
 10
1.792583664990338
 20
-1.685136254274463
 10
1.771722806862827
 20
-1.643512414006725
 10
1.756590762907308
 20
-1.613319377469717
 10
1.744691973689378
 20
-1.581268192053497
 10
1.718809866183745
 20
-1.549059232174917
 10
1.658852914600869
 20
-1.663515755710452
 10
1.715213538808863
 20
-1.757360809244536
 10
1.759322093577137
 20
-1.850655723185431
 10
1.834961975260929
 20
-2.010643170095427
 10
1.974341442885108
 20
-1.974664818904241
 10
2.110462798101518
 20
-1.963919336227314
 97
        0
 97
        0
 92
        1
 93
        1
 72
     4
 94
        3
 73
     0
 74
     1
 95
       56
 96
       52
 40
0.0
 40
0.0
 40
0.0
 40
0.0
 40
1.0
 40
1.0
 40
1.0
 40
2.0
 40
2.0
 40
2.0
 40
3.0
 40
3.0
 40
3.0
 40
4.0
 40
4.0
 40
4.0
 40
5.0
 40
5.0
 40
5.0
 40
6.0
 40
6.0
 40
6.0
 40
7.0
 40
7.0
 40
7.0
 40
8.0
 40
8.0
 40
8.0
 40
9.0
 40
9.0
 40
9.0
 40
10.0
 40
10.0
 40
10.0
 40
11.0
 40
11.0
 40
11.0
 40
12.0
 40
12.0
 40
12.0
 40
13.0
 40
13.0
 40
13.0
 40
14.0
 40
14.0
 40
14.0
 40
15.0
 40
15.0
 40
15.0
 40
16.0
 40
16.0
 40
16.0
 40
17.0
 40
17.0
 40
17.0
 40
17.0
 10
3.021468790886198
 20
-2.741284028221899
 10
3.008530750184314
 20
-2.700357809642279
 10
2.987349504307733
 20
-2.715459474094511
 10
2.967549240108256
 20
-2.723369032982166
 10
2.858273917608156
 20
-2.767018963442246
 10
2.748824340329141
 20
-2.810246404769209
 10
2.639981641725297
 20
-2.854950424278766
 10
2.618680375986564
 20
-2.863699438698935
 10
2.602909314145917
 20
-2.863003574244304
 10
2.583546695594325
 20
-2.84943246014556
 10
2.525274792745171
 20
-2.808589835672491
 10
2.464096049009375
 20
-2.77181093911847
 10
2.406742373431712
 20
-2.729776157251813
 10
2.378498285082982
 20
-2.709075695926686
 10
2.365946919250721
 20
-2.717273943170312
 10
2.349180295164602
 20
-2.742184986926001
 10
2.299048902670898
 20
-2.81666859104007
 10
2.295777231533912
 20
-2.901047929931009
 10
2.350142964937365
 20
-2.976124223791658
 10
2.405473376814193
 20
-3.05253325372357
 10
2.46428938644418
 20
-3.126672189043928
 10
2.525363175572491
 20
-3.198592993656803
 10
2.576638271982498
 20
-3.25897429709716
 10
2.638755078908439
 20
-3.314117789626253
 10
2.72030556217045
 20
-3.317259723072892
 10
2.789611257532518
 20
-3.319929713815832
 10
2.818570945477581
 20
-3.353695457033331
 10
2.838065133919852
 20
-3.40961564675672
 10
2.838960512221774
 20
-3.412183466924994
 10
2.840678704515767
 20
-3.414464607004093
 10
2.841570818679202
 20
-3.417032929239035
 10
2.848808669192926
 20
-3.437874722341904
 10
2.860907324122687
 20
-3.441762224847126
 10
2.882697708462729
 20
-3.435263975470308
 10
3.003415342964546
 20
-3.39926403541075
 10
3.122514215853244
 20
-3.359026401318488
 10
3.239526802059067
 20
-3.312146926771498
 10
3.269848891200556
 20
-3.299999171784495
 10
3.270297082526668
 20
-3.288062284814057
 10
3.259068697141098
 20
-3.261310664513884
 10
3.187468563494374
 20
-3.090723961855095
 10
3.148244917549543
 20
-2.912354723185343
 10
3.135150449286736
 20
-2.728020178947266
 10
3.131636227549759
 20
-2.678550291230269
 10
3.114924842730741
 20
-2.632309696566785
 10
3.098816319185693
 20
-2.575945679875152
 10
3.083673227376771
 20
-2.608052092629072
 10
3.072190239187421
 20
-2.632241164461397
 10
3.060846102428564
 20
-2.656495002898762
 10
3.048864705397566
 20
-2.682111199343151
 10
3.037015882607597
 20
-2.707789401025694
 10
3.021468790886198
 20
-2.741284028221899
 97
        0
 97
        0
 92
        1
 93
        1
 72
     4
 94
        3
 73
     0
 74
     1
 95
       38
 96
       34
 40
0.0
 40
0.0
 40
0.0
 40
0.0
 40
1.0
 40
1.0
 40
1.0
 40
2.0
 40
2.0
 40
2.0
 40
3.0
 40
3.0
 40
3.0
 40
4.0
 40
4.0
 40
4.0
 40
5.0
 40
5.0
 40
5.0
 40
6.0
 40
6.0
 40
6.0
 40
7.0
 40
7.0
 40
7.0
 40
8.0
 40
8.0
 40
8.0
 40
9.0
 40
9.0
 40
9.0
 40
10.0
 40
10.0
 40
10.0
 40
11.0
 40
11.0
 40
11.0
 40
11.0
 10
2.692355748462735
 20
-1.210954709598278
 10
2.716857125378813
 20
-1.282247303245185
 10
2.799689159637182
 20
-1.388329730673313
 10
2.856101005711051
 20
-1.426021007948988
 10
2.873060716144386
 20
-1.437352653505261
 10
2.877896411802617
 20
-1.426066068435855
 10
2.884755873336821
 20
-1.41655730157269
 10
2.916046658352924
 20
-1.373181625050746
 10
2.944423320942658
 20
-1.327958719600487
 10
2.969118286381065
 20
-1.280482789806658
 10
3.071218530261881
 20
-1.084196673146986
 10
3.117142699304269
 20
-0.8717950938388286
 10
3.143152359299342
 20
-0.6547811532185506
 10
3.159591220000872
 20
-0.5176193151034012
 10
3.045594012589567
 20
-0.3908729805623478
 10
2.899713003420351
 20
-0.3846878751488576
 10
2.810261315923576
 20
-0.3808952765115742
 10
2.71797230456112
 20
-0.4528060929405657
 10
2.692617737940534
 20
-0.5386730490525148
 10
2.677563048342891
 20
-0.5896579619601551
 10
2.674272679392541
 20
-0.6418874496404466
 10
2.683486079781737
 20
-0.6928817403763661
 10
2.702049486573615
 20
-0.795628562125949
 10
2.713434048432494
 20
-0.8972735984890252
 10
2.700600460162907
 20
-1.002711497783227
 10
2.690532852648908
 20
-1.085422469009889
 10
2.733418108738786
 20
-1.135287734257948
 10
2.8126068622453
 20
-1.163119802109602
 10
2.825091940957084
 20
-1.167507614087425
 10
2.842583957055063
 20
-1.16422899298003
 10
2.85156159339446
 20
-1.181317586421579
 10
2.797034661766146
 20
-1.191468120051784
 10
2.744905365416924
 20
-1.201172316380305
 10
2.692355748462735
 20
-1.210954709598278
 97
        0
 97
        0
 92
        1
 93
        1
 72
     4
 94
        3
 73
     0
 74
     1
 95
       32
 96
       28
 40
0.0
 40
0.0
 40
0.0
 40
0.0
 40
1.0
 40
1.0
 40
1.0
 40
2.0
 40
2.0
 40
2.0
 40
3.0
 40
3.0
 40
3.0
 40
4.0
 40
4.0
 40
4.0
 40
5.0
 40
5.0
 40
5.0
 40
6.0
 40
6.0
 40
6.0
 40
7.0
 40
7.0
 40
7.0
 40
8.0
 40
8.0
 40
8.0
 40
9.0
 40
9.0
 40
9.0
 40
9.0
 10
2.183862225329802
 20
-0.5835632419941703
 10
2.097774087364264
 20
-0.5716781306527865
 10
2.043367426685652
 20
-0.6191455253125974
 10
2.00341763546621
 20
-0.6923304083747376
 10
1.955278371813683
 20
-0.780517734956321
 10
1.951069139661728
 20
-0.8725079030447835
 10
1.979546237282509
 20
-0.9667472044598071
 10
2.003083546782591
 20
-1.044639023304588
 10
2.029673039827319
 20
-1.121604859596295
 10
2.05395932686262
 20
-1.199278504837985
 10
2.056747300233901
 20
-1.208195143856137
 10
2.064433986563245
 20
-1.214879326465469
 10
2.073707353744958
 20
-1.216012423112753
 10
2.11299000026194
 20
-1.220812301538015
 10
2.152337584007455
 20
-1.220852319509921
 10
2.191622338005118
 20
-1.217011516823782
 10
2.205974755031977
 20
-1.215608240380283
 10
2.216746914288933
 20
-1.208575540994843
 10
2.223054987502577
 20
-1.194230240035305
 10
2.285403297175132
 20
-1.052433046436691
 10
2.344533166277188
 20
-0.9092896864823766
 10
2.36707606008747
 20
-0.7548459346242503
 10
2.38156808180751
 20
-0.6555590428212983
 10
2.321128539900378
 20
-0.587982872449465
 10
2.220458741949541
 20
-0.5836270044658501
 10
2.209525886642874
 20
-0.5831539948703847
 10
2.198554614936837
 20
-0.5835632419941703
 10
2.183862225329802
 20
-0.5835632419941703
 97
        0
 97
        0
 92
        1
 93
        1
 72
     4
 94
        3
 73
     0
 74
     1
 95
       29
 96
       25
 40
0.0
 40
0.0
 40
0.0
 40
0.0
 40
1.0
 40
1.0
 40
1.0
 40
2.0
 40
2.0
 40
2.0
 40
3.0
 40
3.0
 40
3.0
 40
4.0
 40
4.0
 40
4.0
 40
5.0
 40
5.0
 40
5.0
 40
6.0
 40
6.0
 40
6.0
 40
7.0
 40
7.0
 40
7.0
 40
8.0
 40
8.0
 40
8.0
 40
8.0
 10
4.254978949962656
 20
-1.184587044811577
 10
4.196468011739549
 20
-1.188220501563503
 10
4.13204145018666
 20
-1.206639195226153
 10
4.080486642215192
 20
-1.248899530560518
 10
3.965958458463572
 20
-1.342779786203613
 10
3.903329022505962
 20
-1.472311042442609
 10
3.85128821866758
 20
-1.607047598817568
 10
3.841192655970745
 20
-1.633185576175947
 10
3.850935381229621
 20
-1.662954214739051
 10
3.874778809899605
 20
-1.677671726614752
 10
3.934499365743881
 20
-1.714534629263009
 10
3.994281057409403
 20
-1.734798563693024
 10
4.063142014525308
 20
-1.704871115807097
 10
4.115445063478242
 20
-1.682139920172568
 10
4.163387223382314
 20
-1.654354419007884
 10
4.20336840054895
 20
-1.613803871841103
 10
4.259387043476131
 20
-1.556987493047321
 10
4.305946715177596
 20
-1.492513341819037
 10
4.350660893183228
 20
-1.426807620960732
 10
4.372468853653674
 20
-1.394761581728251
 10
4.385946732647552
 20
-1.358667755194675
 10
4.389366043280132
 20
-1.31966344796591
 10
4.396041959795083
 20
-1.243509467920679
 10
4.339991679833095
 20
-1.183410451485884
 10
4.254978949962656
 20
-1.184587044811577
 97
        0
 97
        0
 92
        1
 93
        1
 72
     4
 94
        3
 73
     0
 74
     1
 95
       26
 96
       22
 40
0.0
 40
0.0
 40
0.0
 40
0.0
 40
1.0
 40
1.0
 40
1.0
 40
2.0
 40
2.0
 40
2.0
 40
3.0
 40
3.0
 40
3.0
 40
4.0
 40
4.0
 40
4.0
 40
5.0
 40
5.0
 40
5.0
 40
6.0
 40
6.0
 40
6.0
 40
7.0
 40
7.0
 40
7.0
 40
7.0
 10
3.279967720580417
 20
-4.142019261088282
 10
3.297937807426276
 20
-4.16403890268364
 10
3.311101324772911
 20
-4.181079046688057
 10
3.325206169448165
 20
-4.197300319894818
 10
3.402345797233339
 20
-4.286017013059665
 10
3.493888812823671
 20
-4.357007739099546
 10
3.594263582870781
 20
-4.417593634722556
 10
3.639296642100008
 20
-4.444775526189864
 10
3.687962436402914
 20
-4.454703393235932
 10
3.739208908829015
 20
-4.456475688708375
 10
3.821146318048224
 20
-4.45930985526421
 10
3.872703636895494
 20
-4.415840919851663
 10
3.905112012719782
 20
-4.345248332709667
 10
3.937717241204963
 20
-4.274226980600739
 10
3.921624536177281
 20
-4.209431757713926
 10
3.878095993713411
 20
-4.148264468845229
 10
3.86947213977093
 20
-4.136146084760513
 10
3.858085820299038
 20
-4.135282027959343
 10
3.845917111935099
 20
-4.134273878013548
 10
3.659932023582744
 20
-4.118856413603175
 10
3.474070470318616
 20
-4.114041593891872
 10
3.279967720580417
 20
-4.142019261088282
 97
        0
 97
        0
 92
        1
 93
        1
 72
     4
 94
        3
 73
     0
 74
     1
 95
       32
 96
       28
 40
0.0
 40
0.0
 40
0.0
 40
0.0
 40
1.0
 40
1.0
 40
1.0
 40
2.0
 40
2.0
 40
2.0
 40
3.0
 40
3.0
 40
3.0
 40
4.0
 40
4.0
 40
4.0
 40
5.0
 40
5.0
 40
5.0
 40
6.0
 40
6.0
 40
6.0
 40
7.0
 40
7.0
 40
7.0
 40
8.0
 40
8.0
 40
8.0
 40
9.0
 40
9.0
 40
9.0
 40
9.0
 10
2.629010872194435
 20
-3.958906245146105
 10
2.638155983948132
 20
-3.998486673920095
 10
2.657360166238226
 20
-4.007313759713043
 10
2.698714541367079
 20
-3.997251087756442
 10
2.906299187500432
 20
-3.946740666791053
 10
3.114679781254936
 20
-3.899451756845236
 10
3.323165078529352
 20
-3.852746248411879
 10
3.351866146269433
 20
-3.846316782173794
 10
3.372261739115503
 20
-3.831204323287415
 10
3.393284046555487
 20
-3.813379700054687
 10
3.410225678683219
 20
-3.799015069527008
 10
3.408126084358779
 20
-3.788121728205144
 10
3.39443051243509
 20
-3.772795388901942
 10
3.356270473469244
 20
-3.730090599015991
 10
3.307705867460122
 20
-3.729586273009722
 10
3.257769570014261
 20
-3.738575526348793
 10
3.15667292318143
 20
-3.756774189277495
 10
3.055677464642334
 20
-3.77568980346248
 10
2.955060143995221
 20
-3.796351856684598
 10
2.858474536582712
 20
-3.816186001908363
 10
2.762296193221118
 20
-3.838066822059469
 10
2.666216527277558
 20
-3.860251643601107
 10
2.641337012469547
 20
-3.865996039818735
 10
2.613193610239477
 20
-3.871632993761295
 10
2.614957500472554
 20
-3.915464170302307
 10
2.618179958444317
 20
-3.925227359468787
 10
2.625042935204621
 20
-3.941732551397889
 10
2.629010872194435
 20
-3.958906245146105
 97
        0
 97
        0
 92
        1
 93
        1
 72
     4
 94
        3
 73
     0
 74
     1
 95
       53
 96
       49
 40
0.0
 40
0.0
 40
0.0
 40
0.0
 40
1.0
 40
1.0
 40
1.0
 40
2.0
 40
2.0
 40
2.0
 40
3.0
 40
3.0
 40
3.0
 40
4.0
 40
4.0
 40
4.0
 40
5.0
 40
5.0
 40
5.0
 40
6.0
 40
6.0
 40
6.0
 40
7.0
 40
7.0
 40
7.0
 40
8.0
 40
8.0
 40
8.0
 40
9.0
 40
9.0
 40
9.0
 40
10.0
 40
10.0
 40
10.0
 40
11.0
 40
11.0
 40
11.0
 40
12.0
 40
12.0
 40
12.0
 40
13.0
 40
13.0
 40
13.0
 40
14.0
 40
14.0
 40
14.0
 40
15.0
 40
15.0
 40
15.0
 40
16.0
 40
16.0
 40
16.0
 40
16.0
 10
2.226282718313465
 20
-3.923700574615572
 10
2.203822181228664
 20
-3.928106712028163
 10
2.197156559304403
 20
-3.933866672313671
 10
2.21017394368083
 20
-3.955032800508711
 10
2.223786656703914
 20
-3.977166913313011
 10
2.235300779752859
 20
-4.000594349952204
 10
2.247641734195049
 20
-4.023505410984222
 10
2.252053342934611
 20
-4.031696127227229
 10
2.260355804777658
 20
-4.041068708496368
 10
2.249960276887211
 20
-4.048938604114205
 10
2.238967134653977
 20
-4.0572607069264
 10
2.231936776288232
 20
-4.04364868999768
 10
2.224465012271253
 20
-4.038982357678807
 10
2.210230532515854
 20
-4.030092514159403
 10
2.197102930870174
 20
-4.01960317981391
 10
2.18499889276912
 20
-4.00797812096011
 10
2.1497724672589
 20
-3.974145670471444
 10
2.129763757512263
 20
-3.995250262353086
 10
2.109572190463546
 20
-4.019561174941247
 10
2.088445681678864
 20
-4.044998384604873
 10
2.096228643323735
 20
-4.059677810957307
 10
2.122476585430036
 20
-4.076599467219087
 10
2.147249890192698
 20
-4.092570209139568
 10
2.170818476757732
 20
-4.092962825303731
 10
2.196820604125492
 20
-4.087175000316013
 10
2.295738061871803
 20
-4.065154856653963
 10
2.394902087619383
 20
-4.044155916672076
 10
2.493449693363787
 20
-4.020584888954923
 10
2.612692690522029
 20
-3.992063483515848
 10
2.618503108156776
 20
-3.978819465876086
 10
2.568134940077319
 20
-3.868514908483146
 10
2.566695454994563
 20
-3.86536243163568
 10
2.563493837291743
 20
-3.863014014618001
 10
2.560080050585839
 20
-3.859107684611293
 10
2.536728152600315
 20
-3.882112632117342
 10
2.518013591086704
 20
-3.912242157216042
 10
2.491249664008301
 20
-3.923901652331349
 10
2.459147866116357
 20
-3.937886469395936
 10
2.437666570584421
 20
-3.893555736482363
 10
2.405202704405471
 20
-3.890110554745206
 10
2.404347751203532
 20
-3.891406890980306
 10
2.402740539618915
 20
-3.892759960753235
 10
2.402962249949989
 20
-3.893664684957583
 10
2.410037897888565
 20
-3.922533520557307
 10
2.417290813656968
 20
-3.951359178420287
 10
2.427702411152394
 20
-3.992901181814911
 10
2.367513705735341
 20
-3.92499992325093
 10
2.302086309097894
 20
-3.908829107748058
 10
2.226282718313465
 20
-3.923700574615572
 97
        0
 97
        0
 92
        1
 93
        1
 72
     4
 94
        3
 73
     0
 74
     1
 95
       26
 96
       22
 40
0.0
 40
0.0
 40
0.0
 40
0.0
 40
1.0
 40
1.0
 40
1.0
 40
2.0
 40
2.0
 40
2.0
 40
3.0
 40
3.0
 40
3.0
 40
4.0
 40
4.0
 40
4.0
 40
5.0
 40
5.0
 40
5.0
 40
6.0
 40
6.0
 40
6.0
 40
7.0
 40
7.0
 40
7.0
 40
7.0
 10
3.479048532633391
 20
-3.704238682253112
 10
3.46564949513893
 20
-3.727734650997718
 10
3.446136475128317
 20
-3.750390411109695
 10
3.441817266617363
 20
-3.775587381854443
 10
3.43831861231019
 20
-3.796002418257153
 10
3.469326923801418
 20
-3.800982417914762
 10
3.484524752702252
 20
-3.813317443783161
 10
3.492802105787531
 20
-3.820035096310549
 10
3.503386953711545
 20
-3.823900005813938
 10
3.512899155503798
 20
-3.829109700989597
 10
3.521347248141915
 20
-3.833736747752886
 10
3.529680844844556
 20
-3.832658559501548
 10
3.534122584093463
 20
-3.824538885697418
 10
3.544974589200087
 20
-3.804702732206831
 10
3.568919807131654
 20
-3.783101814244396
 10
3.560445601385481
 20
-3.763784044627805
 10
3.547657208879855
 20
-3.734631039272446
 10
3.514053656185903
 20
-3.720080393030129
 10
3.488986076782213
 20
-3.697979416628414
 10
3.485054045315969
 20
-3.70035871074856
 10
3.480620340869614
 20
-3.701482587070106
 10
3.479048532633391
 20
-3.704238682253112
 97
        0
 97
        0
 75
     2
 76
     1
 98
        0
  0
ENDBLK
  5
44
330
41
100
AcDbEntity
  8
0
100
AcDbBlockEnd
  0
BLOCK
  5
47
330
45
100
AcDbEntity
  8
0
100
AcDbBlockBegin
  2
block 3
 70
     0
 10
0.0
 20
0.0
 30
0.0
  3
block 3
  1

  0
SPLINE
  5
49
330
45
100
AcDbEntity
  8
Layer 1
370
     0
100
AcDbSpline
210
0.0
220
0.0
230
1.0
 70
    11
 71
     3
 72
   221
 73
   217
 74
     0
 42
0.0000000001
 43
0.0000000001
 12
1.0
 22
0.0
 32
0.0
 13
1.0
 23
0.0
 33
0.0
 40
0.0
 40
0.0
 40
0.0
 40
0.0
 40
1.0
 40
1.0
 40
1.0
 40
2.0
 40
2.0
 40
2.0
 40
3.0
 40
3.0
 40
3.0
 40
4.0
 40
4.0
 40
4.0
 40
5.0
 40
5.0
 40
5.0
 40
6.0
 40
6.0
 40
6.0
 40
7.0
 40
7.0
 40
7.0
 40
8.0
 40
8.0
 40
8.0
 40
9.0
 40
9.0
 40
9.0
 40
10.0
 40
10.0
 40
10.0
 40
11.0
 40
11.0
 40
11.0
 40
12.0
 40
12.0
 40
12.0
 40
13.0
 40
13.0
 40
13.0
 40
14.0
 40
14.0
 40
14.0
 40
15.0
 40
15.0
 40
15.0
 40
16.0
 40
16.0
 40
16.0
 40
17.0
 40
17.0
 40
17.0
 40
18.0
 40
18.0
 40
18.0
 40
19.0
 40
19.0
 40
19.0
 40
20.0
 40
20.0
 40
20.0
 40
21.0
 40
21.0
 40
21.0
 40
22.0
 40
22.0
 40
22.0
 40
23.0
 40
23.0
 40
23.0
 40
24.0
 40
24.0
 40
24.0
 40
25.0
 40
25.0
 40
25.0
 40
26.0
 40
26.0
 40
26.0
 40
27.0
 40
27.0
 40
27.0
 40
28.0
 40
28.0
 40
28.0
 40
29.0
 40
29.0
 40
29.0
 40
30.0
 40
30.0
 40
30.0
 40
31.0
 40
31.0
 40
31.0
 40
32.0
 40
32.0
 40
32.0
 40
33.0
 40
33.0
 40
33.0
 40
34.0
 40
34.0
 40
34.0
 40
35.0
 40
35.0
 40
35.0
 40
36.0
 40
36.0
 40
36.0
 40
37.0
 40
37.0
 40
37.0
 40
38.0
 40
38.0
 40
38.0
 40
39.0
 40
39.0
 40
39.0
 40
40.0
 40
40.0
 40
40.0
 40
41.0
 40
41.0
 40
41.0
 40
42.0
 40
42.0
 40
42.0
 40
43.0
 40
43.0
 40
43.0
 40
44.0
 40
44.0
 40
44.0
 40
45.0
 40
45.0
 40
45.0
 40
46.0
 40
46.0
 40
46.0
 40
47.0
 40
47.0
 40
47.0
 40
48.0
 40
48.0
 40
48.0
 40
49.0
 40
49.0
 40
49.0
 40
50.0
 40
50.0
 40
50.0
 40
51.0
 40
51.0
 40
51.0
 40
52.0
 40
52.0
 40
52.0
 40
53.0
 40
53.0
 40
53.0
 40
54.0
 40
54.0
 40
54.0
 40
55.0
 40
55.0
 40
55.0
 40
56.0
 40
56.0
 40
56.0
 40
57.0
 40
57.0
 40
57.0
 40
58.0
 40
58.0
 40
58.0
 40
59.0
 40
59.0
 40
59.0
 40
60.0
 40
60.0
 40
60.0
 40
61.0
 40
61.0
 40
61.0
 40
62.0
 40
62.0
 40
62.0
 40
63.0
 40
63.0
 40
63.0
 40
64.0
 40
64.0
 40
64.0
 40
65.0
 40
65.0
 40
65.0
 40
66.0
 40
66.0
 40
66.0
 40
67.0
 40
67.0
 40
67.0
 40
68.0
 40
68.0
 40
68.0
 40
69.0
 40
69.0
 40
69.0
 40
70.0
 40
70.0
 40
70.0
 40
71.0
 40
71.0
 40
71.0
 40
72.0
 40
72.0
 40
72.0
 40
72.0
 10
2.454893689287966
 20
-1.063843265432448
 30
0.0
 10
2.526690675595596
 20
-0.9624879215587548
 30
0.0
 10
2.555338512769241
 20
-0.8556170611270898
 30
0.0
 10
2.567344265295231
 20
-0.7422671553700739
 30
0.0
 10
2.578958070112523
 20
-0.6326164771034857
 30
0.0
 10
2.601535614008526
 20
-0.5265604709357805
 30
0.0
 10
2.665973976677555
 20
-0.4323812920087877
 30
0.0
 10
2.720104441020718
 20
-0.3532668756311573
 30
0.0
 10
2.789353892765398
 20
-0.3170474069043697
 30
0.0
 10
2.885629155931913
 20
-0.3266423723451402
 30
0.0
 10
3.007988311344207
 20
-0.3388369399193733
 30
0.0
 10
3.120074533374842
 20
-0.3721551896650984
 30
0.0
 10
3.196057469331208
 20
-0.5018371036443467
 30
0.0
 10
3.243370542506959
 20
-0.5825874696106944
 30
0.0
 10
3.253486309211464
 20
-0.6797671860013754
 30
0.0
 10
3.229641258948327
 20
-0.7702689101561064
 30
0.0
 10
3.151401371925532
 20
-1.067221300488515
 30
0.0
 10
3.080233597068804
 20
-1.3658833721104
 30
0.0
 10
3.007937932413471
 20
-1.664285675004231
 30
0.0
 10
3.004392073641661
 20
-1.67892079396985
 30
0.0
 10
2.999596803083452
 20
-1.693389854372413
 30
0.0
 10
2.997639826503145
 20
-1.708233582054403
 30
0.0
 10
2.995810653499878
 20
-1.722106187210165
 30
0.0
 10
2.985105283538562
 20
-1.739100643144323
 30
0.0
 10
3.002013018843324
 20
-1.749487650193108
 30
0.0
 10
3.017437328739232
 20
-1.758963280653663
 30
0.0
 10
3.030164706963433
 20
-1.747764180707804
 30
0.0
 10
3.042555125658459
 20
-1.738472432178355
 30
0.0
 10
3.073257110304919
 20
-1.715448782687506
 30
0.0
 10
3.104263162007985
 20
-1.692819130044263
 30
0.0
 10
3.135469581597944
 20
-1.670481554707306
 30
0.0
 10
3.304111548785891
 20
-1.549768024847203
 30
0.0
 10
3.482138416364124
 20
-1.449795121648726
 30
0.0
 10
3.690556171080137
 20
-1.414848266505171
 30
0.0
 10
3.735142796596316
 20
-1.407372116701582
 30
0.0
 10
3.770144404922727
 20
-1.378613610260547
 30
0.0
 10
3.802391582522129
 20
-1.348614873538774
 30
0.0
 10
3.891875468891789
 20
-1.265369185054308
 30
0.0
 10
3.997098194621811
 20
-1.206144616632855
 30
0.0
 10
4.104297794894743
 20
-1.149943311593246
 30
0.0
 10
4.126356536039136
 20
-1.138378622576763
 30
0.0
 10
4.149541113407546
 20
-1.129081691518447
 30
0.0
 10
4.173479624301586
 20
-1.12220580691356
 30
0.0
 10
4.248186089491885
 20
-1.10074778740011
 30
0.0
 10
4.328002454482607
 20
-1.082210587556107
 30
0.0
 10
4.38851937596827
 20
-1.145541317079594
 30
0.0
 10
4.46537025303913
 20
-1.225964997910018
 30
0.0
 10
4.49790266612677
 20
-1.324902639560567
 30
0.0
 10
4.444134270070586
 20
-1.432478715439275
 30
0.0
 10
4.380358527519042
 20
-1.560078466723313
 30
0.0
 10
4.288067773122394
 20
-1.667212347350654
 30
0.0
 10
4.186630400446676
 20
-1.766321193747987
 30
0.0
 10
4.047443014819363
 20
-1.902313492090874
 30
0.0
 10
3.88838556264606
 20
-2.011663871708897
 30
0.0
 10
3.719962041650761
 20
-2.107708981549018
 30
0.0
 10
3.551531992378411
 20
-2.203757856889448
 30
0.0
 10
3.426885339461251
 20
-2.340370458647726
 30
0.0
 10
3.340630228256537
 20
-2.512699583809952
 30
0.0
 10
3.287532989295414
 20
-2.618783015371517
 30
0.0
 10
3.267790977414001
 20
-2.728780810007013
 30
0.0
 10
3.296544020282656
 20
-2.847319512413024
 30
0.0
 10
3.325610922623405
 20
-2.967152040720596
 30
0.0
 10
3.354705695685248
 20
-3.086874867452934
 30
0.0
 10
3.387783722079146
 20
-3.205681171413289
 30
0.0
 10
3.395489599837649
 20
-3.233357598586053
 30
0.0
 10
3.403902540214883
 20
-3.236990804304646
 30
0.0
 10
3.429165465753992
 20
-3.224030705387172
 30
0.0
 10
3.536425057180622
 20
-3.169006453700755
 30
0.0
 10
3.645547718433565
 20
-3.117571476896147
 30
0.0
 10
3.75223985193462
 20
-3.061497403727294
 30
0.0
 10
3.826753605832588
 20
-3.022335698586201
 30
0.0
 10
3.908169255065407
 20
-3.003509452274885
 30
0.0
 10
3.988459529775102
 20
-2.997306167087875
 30
0.0
 10
4.139871867383666
 20
-2.985607761802839
 30
0.0
 10
4.292422133894231
 20
-2.980261002416404
 30
0.0
 10
4.444495836182417
 20
-2.994627390177609
 30
0.0
 10
4.493366517948667
 20
-2.999243893540021
 30
0.0
 10
4.538182135335672
 20
-3.013940892227184
 30
0.0
 10
4.57538477736792
 20
-3.047775418583367
 30
0.0
 10
4.607998737759746
 20
-3.077437254793065
 30
0.0
 10
4.625315880047538
 20
-3.113310265816911
 30
0.0
 10
4.624842237866637
 20
-3.167749766876416
 30
0.0
 10
4.623657311149903
 20
-3.303942914058123
 30
0.0
 10
4.646410029813296
 20
-3.441505826988456
 30
0.0
 10
4.712944379059587
 20
-3.560346719617907
 30
0.0
 10
4.7368357312966
 20
-3.603020461198639
 30
0.0
 10
4.742740027736065
 20
-3.650249467425965
 30
0.0
 10
4.728359381884704
 20
-3.689175425903891
 30
0.0
 10
4.698717488991128
 20
-3.769413718603118
 30
0.0
 10
4.671988714173595
 20
-3.851177038922009
 30
0.0
 10
4.621007892404628
 20
-3.922078397088221
 30
0.0
 10
4.606441799849208
 20
-3.942336537645259
 30
0.0
 10
4.588836543253643
 20
-3.955852926473072
 30
0.0
 10
4.567489579575825
 20
-3.964757330538784
 30
0.0
 10
4.408673171477099
 20
-4.031002773106138
 30
0.0
 10
4.256382027346616
 20
-4.11487904115759
 30
0.0
 10
4.083182820624112
 20
-4.142565509664488
 30
0.0
 10
4.059727725644178
 20
-4.146314943825498
 30
0.0
 10
4.036784849322682
 20
-4.148130417034685
 30
0.0
 10
4.013923325376355
 20
-4.145543267298282
 30
0.0
 10
3.983971590411986
 20
-4.142152810832108
 30
0.0
 10
3.975241777511731
 20
-4.146371175296584
 30
0.0
 10
3.988018619988704
 20
-4.179046178595146
 30
0.0
 10
4.021715577261577
 20
-4.265222414227158
 30
0.0
 10
4.016036478430022
 20
-4.350546140592289
 30
0.0
 10
3.973556477690408
 20
-4.433441370300064
 30
0.0
 10
3.957853962758438
 20
-4.464083003438948
 30
0.0
 10
3.935595048998544
 20
-4.486890387696121
 30
0.0
 10
3.90440294140045
 20
-4.500822738789894
 30
0.0
 10
3.802989640629549
 20
-4.546119443656885
 30
0.0
 10
3.697160412907603
 20
-4.558423903742955
 30
0.0
 10
3.587604398173324
 20
-4.538962319376651
 30
0.0
 10
3.569353557143485
 20
-4.535720230995467
 30
0.0
 10
3.552053243415179
 20
-4.528310463171439
 30
0.0
 10
3.536467133958518
 20
-4.518276643989666
 30
0.0
 10
3.384276790246834
 20
-4.420301559555431
 30
0.0
 10
3.236184507876613
 20
-4.317109810148799
 30
0.0
 10
3.11299598795914
 20
-4.183006480772696
 30
0.0
 10
3.096662992119617
 20
-4.165226290443494
 30
0.0
 10
3.079961148628551
 20
-4.167914355587881
 30
0.0
 10
3.060920173263993
 20
-4.171076873769506
 30
0.0
 10
2.852637503664735
 20
-4.20566525328488
 30
0.0
 10
2.647006569973226
 20
-4.253225530285337
 30
0.0
 10
2.441136851995338
 20
-4.299327805571314
 30
0.0
 10
1.859543700201849
 20
-4.429569431862723
 30
0.0
 10
1.278307971575158
 20
-4.561405622012671
 30
0.0
 10
0.6968581907885133
 20
-4.692288387487805
 30
0.0
 10
0.5908910056966886
 20
-4.716141298881312
 30
0.0
 10
0.4958341407886513
 20
-4.700951402985841
 30
0.0
 10
0.423717401286126
 20
-4.606921619241954
 30
0.0
 10
0.41608446354644
 20
-4.596969373897182
 30
0.0
 10
0.4111487805352125
 20
-4.585159258262112
 30
0.0
 10
0.4083902449074483
 20
-4.572924087354775
 30
0.0
 10
0.381252585285362
 20
-4.452558085857314
 30
0.0
 10
0.3529235213889529
 20
-4.332458994778285
 30
0.0
 10
0.3260728012441834
 20
-4.212029786678815
 30
0.0
 10
0.3043400060887001
 20
-4.114555182785605
 30
0.0
 10
0.3641037306571585
 20
-4.006388975418405
 30
0.0
 10
0.4580504397001479
 20
-3.972512307202628
 30
0.0
 10
0.5221365828805852
 20
-3.949403195325607
 30
0.0
 10
0.5909837292139551
 20
-3.941484685136781
 30
0.0
 10
0.65739927578343
 20
-3.925326768676591
 30
0.0
 10
1.28064145397818
 20
-3.773700866206329
 30
0.0
 10
1.910223719052763
 20
-3.651554563483766
 30
0.0
 10
2.537866834765029
 20
-3.520385117919482
 30
0.0
 10
2.584666546190722
 20
-3.510604858485016
 30
0.0
 10
2.631062257703964
 20
-3.498893399465588
 30
0.0
 10
2.683563665843242
 20
-3.486706232242164
 30
0.0
 10
2.632681772579897
 20
-3.429495731084115
 30
0.0
 10
2.574641372477319
 20
-3.393759376045257
 30
0.0
 10
2.507067177050835
 20
-3.372003821537343
 30
0.0
 10
2.46014719467544
 20
-3.356897638484699
 30
0.0
 10
2.411006844850779
 20
-3.349824773762798
 30
0.0
 10
2.365176833650025
 20
-3.330554700483288
 30
0.0
 10
2.240661750623568
 20
-3.278200690573208
 30
0.0
 10
2.149966657783024
 20
-3.186214287985017
 30
0.0
 10
2.071501036500194
 20
-3.080369338108842
 30
0.0
 10
2.034619952254717
 20
-3.030619113063747
 30
0.0
 10
2.000335362010762
 20
-2.978877647013759
 30
0.0
 10
1.966260366415806
 20
-2.927136592320898
 30
0.0
 10
1.924605086132323
 20
-2.86388528156456
 30
0.0
 10
1.854955740025831
 20
-2.825060144639918
 30
0.0
 10
1.779292619863567
 20
-2.821746093463541
 30
0.0
 10
1.645203479199924
 20
-2.815872977559719
 30
0.0
 10
1.513250696111476
 20
-2.796894146357772
 30
0.0
 10
1.38821390052658
 20
-2.744595158148539
 30
0.0
 10
1.270206756425611
 20
-2.695236227173533
 30
0.0
 10
1.174253387533617
 20
-2.61795862184009
 30
0.0
 10
1.098401964565647
 20
-2.515325141649403
 30
0.0
 10
1.082063444799473
 20
-2.493217638380517
 30
0.0
 10
1.065991956672128
 20
-2.470614344239329
 30
0.0
 10
1.058579976923258
 20
-2.443862723939181
 30
0.0
 10
1.012698367225286
 20
-2.278265309172083
 30
0.0
 10
0.9101204292279969
 20
-2.152454923628536
 30
0.0
 10
0.7789517764810195
 20
-2.047476791920417
 30
0.0
 10
0.6230005287310025
 20
-1.922664766021916
 30
0.0
 10
0.4870587011326203
 20
-1.778165951477869
 30
0.0
 10
0.356774881009326
 20
-1.627592380823583
 30
0.0
 10
0.3025394620586894
 20
-1.564911109802703
 30
0.0
 10
0.2833834885835181
 20
-1.496757437202215
 30
0.0
 10
0.3133708779839708
 20
-1.418590546215632
 30
0.0
 10
0.3452509655448415
 20
-1.335489971225065
 30
0.0
 10
0.4054888841271173
 20
-1.283349841731731
 30
0.0
 10
0.4938227493873278
 20
-1.268026640345435
 30
0.0
 10
0.5847185867462106
 20
-1.252258984407578
 30
0.0
 10
0.6677960591117653
 20
-1.276681642774911
 30
0.0
 10
0.7448632481307919
 20
-1.324367436451881
 30
0.0
 10
0.8442702011097556
 20
-1.385876005164
 30
0.0
 10
0.9311437410182685
 20
-1.464152095659162
 30
0.0
 10
1.023585901224187
 20
-1.534923418548487
 30
0.0
 10
1.120036172432378
 20
-1.60876362417874
 30
0.0
 10
1.225405074399191
 20
-1.666330467181423
 30
0.0
 10
1.334044266521295
 20
-1.719182652780647
 30
0.0
 10
1.353258241226892
 20
-1.728529879681117
 30
0.0
 10
1.362916827076914
 20
-1.723478712067908
 30
0.0
 10
1.375176931319111
 20
-1.708919154141553
 30
0.0
 10
1.497017680555852
 20
-1.564224659098828
 30
0.0
 10
1.61945928236595
 20
-1.420036121779124
 30
0.0
 10
1.741668879254298
 20
-1.275652029477429
 30
0.0
 10
1.799586748618961
 20
-1.207225232588826
 30
0.0
 10
1.808772285472653
 20
-1.121044352839767
 30
0.0
 10
1.826003421577449
 20
-1.038387353784022
 30
0.0
 10
1.847502293239788
 20
-0.9352609696046177
 30
0.0
 10
1.859633087379482
 20
-0.8303095729486105
 30
0.0
 10
1.897253288053346
 20
-0.7306353994402394
 30
0.0
 10
1.967967835813675
 20
-0.5432786646649169
 30
0.0
 10
2.078676366207118
 20
-0.490629878840006
 30
0.0
 10
2.278044673536543
 20
-0.5111532988928881
 30
0.0
 10
2.332928149525135
 20
-0.5168031810531046
 30
0.0
 10
2.391794627758208
 20
-0.5767524560928147
 30
0.0
 10
2.403516400233886
 20
-0.6330623123385016
 30
0.0
 10
2.431251282975103
 20
-0.7662976368816317
 30
0.0
 10
2.436662471361349
 20
-0.9022059018096039
 30
0.0
 10
2.45156225930753
 20
-1.036978680123411
 30
0.0
 10
2.452266308875298
 20
-1.043347898356779
 30
0.0
 10
2.453133816456127
 20
-1.049699167705386
 30
0.0
 10
2.454893689287966
 20
-1.063843265432448
 30
0.0
  0
SPLINE
  5
4A
330
45
100
AcDbEntity
  8
Layer 1
370
     0
100
AcDbSpline
210
0.0
220
0.0
230
1.0
 70
    11
 71
     3
 72
   224
 73
   220
 74
     0
 42
0.0000000001
 43
0.0000000001
 12
1.0
 22
0.0
 32
0.0
 13
1.0
 23
0.0
 33
0.0
 40
0.0
 40
0.0
 40
0.0
 40
0.0
 40
1.0
 40
1.0
 40
1.0
 40
2.0
 40
2.0
 40
2.0
 40
3.0
 40
3.0
 40
3.0
 40
4.0
 40
4.0
 40
4.0
 40
5.0
 40
5.0
 40
5.0
 40
6.0
 40
6.0
 40
6.0
 40
7.0
 40
7.0
 40
7.0
 40
8.0
 40
8.0
 40
8.0
 40
9.0
 40
9.0
 40
9.0
 40
10.0
 40
10.0
 40
10.0
 40
11.0
 40
11.0
 40
11.0
 40
12.0
 40
12.0
 40
12.0
 40
13.0
 40
13.0
 40
13.0
 40
14.0
 40
14.0
 40
14.0
 40
15.0
 40
15.0
 40
15.0
 40
16.0
 40
16.0
 40
16.0
 40
17.0
 40
17.0
 40
17.0
 40
18.0
 40
18.0
 40
18.0
 40
19.0
 40
19.0
 40
19.0
 40
20.0
 40
20.0
 40
20.0
 40
21.0
 40
21.0
 40
21.0
 40
22.0
 40
22.0
 40
22.0
 40
23.0
 40
23.0
 40
23.0
 40
24.0
 40
24.0
 40
24.0
 40
25.0
 40
25.0
 40
25.0
 40
26.0
 40
26.0
 40
26.0
 40
27.0
 40
27.0
 40
27.0
 40
28.0
 40
28.0
 40
28.0
 40
29.0
 40
29.0
 40
29.0
 40
30.0
 40
30.0
 40
30.0
 40
31.0
 40
31.0
 40
31.0
 40
32.0
 40
32.0
 40
32.0
 40
33.0
 40
33.0
 40
33.0
 40
34.0
 40
34.0
 40
34.0
 40
35.0
 40
35.0
 40
35.0
 40
36.0
 40
36.0
 40
36.0
 40
37.0
 40
37.0
 40
37.0
 40
38.0
 40
38.0
 40
38.0
 40
39.0
 40
39.0
 40
39.0
 40
40.0
 40
40.0
 40
40.0
 40
41.0
 40
41.0
 40
41.0
 40
42.0
 40
42.0
 40
42.0
 40
43.0
 40
43.0
 40
43.0
 40
44.0
 40
44.0
 40
44.0
 40
45.0
 40
45.0
 40
45.0
 40
46.0
 40
46.0
 40
46.0
 40
47.0
 40
47.0
 40
47.0
 40
48.0
 40
48.0
 40
48.0
 40
49.0
 40
49.0
 40
49.0
 40
50.0
 40
50.0
 40
50.0
 40
51.0
 40
51.0
 40
51.0
 40
52.0
 40
52.0
 40
52.0
 40
53.0
 40
53.0
 40
53.0
 40
54.0
 40
54.0
 40
54.0
 40
55.0
 40
55.0
 40
55.0
 40
56.0
 40
56.0
 40
56.0
 40
57.0
 40
57.0
 40
57.0
 40
58.0
 40
58.0
 40
58.0
 40
59.0
 40
59.0
 40
59.0
 40
60.0
 40
60.0
 40
60.0
 40
61.0
 40
61.0
 40
61.0
 40
62.0
 40
62.0
 40
62.0
 40
63.0
 40
63.0
 40
63.0
 40
64.0
 40
64.0
 40
64.0
 40
65.0
 40
65.0
 40
65.0
 40
66.0
 40
66.0
 40
66.0
 40
67.0
 40
67.0
 40
67.0
 40
68.0
 40
68.0
 40
68.0
 40
69.0
 40
69.0
 40
69.0
 40
70.0
 40
70.0
 40
70.0
 40
71.0
 40
71.0
 40
71.0
 40
72.0
 40
72.0
 40
72.0
 40
73.0
 40
73.0
 40
73.0
 40
73.0
 10
3.803476280857644
 20
-3.091839554076008
 30
0.0
 10
3.788319630319544
 20
-3.13790367229232
 30
0.0
 10
3.788318123794069
 20
-3.137936808694955
 30
0.0
 10
3.750963322689813
 20
-3.136481066280667
 30
0.0
 10
3.733862249950233
 20
-3.13581457272835
 30
0.0
 10
3.715411832568305
 20
-3.138466489069868
 30
0.0
 10
3.705119752759881
 20
-3.150927784714819
 30
0.0
 10
3.663112298841472
 20
-3.201785886874152
 30
0.0
 10
3.603419240302678
 20
-3.211763458524097
 30
0.0
 10
3.544702410265902
 20
-3.225701081318296
 30
0.0
 10
3.522148217514642
 20
-3.231054618605261
 30
0.0
 10
3.49827179757939
 20
-3.238211328467084
 30
0.0
 10
3.488897693954868
 20
-3.263071161418768
 30
0.0
 10
3.45019806778464
 20
-3.365704139542736
 30
0.0
 10
3.367380094430574
 20
-3.408501058669243
 30
0.0
 10
3.267487914707772
 20
-3.43188933410536
 30
0.0
 10
2.868559720227166
 20
-3.525292568938109
 30
0.0
 10
2.472404285866711
 20
-3.62959818229337
 30
0.0
 10
2.07644545307955
 20
-3.734790445451633
 30
0.0
 10
1.66950549204023
 20
-3.842900406111665
 30
0.0
 10
1.266912561699554
 20
-3.967442332905294
 30
0.0
 10
0.8553565303495689
 20
-4.05809719411751
 30
0.0
 10
0.8452117472984734
 20
-4.060331820339621
 30
0.0
 10
0.8364925603213148
 20
-4.066407038089841
 30
0.0
 10
0.830156499488655
 20
-4.074638958317286
 30
0.0
 10
0.785545005139612
 20
-4.132598986228459
 30
0.0
 10
0.7233371080778347
 20
-4.163855545191078
 30
0.0
 10
0.6566766457349078
 20
-4.187956858494696
 30
0.0
 10
0.603878577622595
 20
-4.207046438793315
 30
0.0
 10
0.5506967221478539
 20
-4.225076658342106
 30
0.0
 10
0.49793317857748
 20
-4.244258116847984
 30
0.0
 10
0.4872286874226827
 20
-4.24814963588685
 30
0.0
 10
0.4724718938520027
 20
-4.24915678169926
 30
0.0
 10
0.4723212413053943
 20
-4.266152743833522
 30
0.0
 10
0.4718689070342508
 20
-4.317172762505556
 30
0.0
 10
0.5367816996812532
 20
-4.381082841789572
 30
0.0
 10
0.58878206255934
 20
-4.378506235453945
 30
0.0
 10
0.6568289303507602
 20
-4.375133351322498
 30
0.0
 10
0.7205218140016996
 20
-4.353978268595053
 30
0.0
 10
0.7817762606421689
 20
-4.325388080017193
 30
0.0
 10
0.8502622806069363
 20
-4.293421994907678
 30
0.0
 10
0.8638773789619891
 20
-4.299452820181133
 30
0.0
 10
0.8878735676717799
 20
-4.372321275701728
 30
0.0
 10
0.9007866251597028
 20
-4.41153368958016
 30
0.0
 10
0.916470057435769
 20
-4.449614445103053
 30
0.0
 10
0.9401187409380832
 20
-4.487407014336668
 30
0.0
 10
0.954971852447885
 20
-4.464869158396014
 30
0.0
 10
0.9371232992130368
 20
-4.455452674498019
 30
0.0
 10
0.9390949960702275
 20
-4.440720399657013
 30
0.0
 10
0.9422497320909365
 20
-4.417148602634496
 30
0.0
 10
0.9357707257934685
 20
-4.393143174600608
 30
0.0
 10
0.9243860175098714
 20
-4.3722632705891
 30
0.0
 10
0.8758475081277891
 20
-4.283242156344209
 30
0.0
 10
0.8662120059439454
 20
-4.265884488368126
 30
0.0
 10
0.9153669041633066
 20
-4.255027949760157
 30
0.0
 10
1.094599619833288
 20
-4.215445512719346
 30
0.0
 10
1.273358407700458
 20
-4.173716740510043
 30
0.0
 10
1.452261570924773
 20
-4.132644169485603
 30
0.0
 10
1.629861087445849
 20
-4.091870830217961
 30
0.0
 10
1.807376238540857
 20
-4.050728471921401
 30
0.0
 10
1.98506062266319
 20
-4.010329423383129
 30
0.0
 10
2.048350510751978
 20
-3.995939689520128
 30
0.0
 10
2.061518045499838
 20
-4.004581512698552
 30
0.0
 10
2.078966372359307
 20
-4.067316253823643
 30
0.0
 10
2.081167657152693
 20
-4.075231335445046
 30
0.0
 10
2.081548054832865
 20
-4.083855335255395
 30
0.0
 10
2.084838055362992
 20
-4.091230193101031
 30
0.0
 10
2.098503998952538
 20
-4.121862286972474
 30
0.0
 10
2.083959248841173
 20
-4.130405956109901
 30
0.0
 10
2.055674735392447
 20
-4.136795759078217
 30
0.0
 10
1.752328300188891
 20
-4.205324349991441
 30
0.0
 10
1.449180224171666
 20
-4.274739088640924
 30
0.0
 10
1.146185939295795
 20
-4.344810028475296
 30
0.0
 10
1.107739158316273
 20
-4.353701127773269
 30
0.0
 10
1.067546439865434
 20
-4.357916981904256
 30
0.0
 10
1.028405150646083
 20
-4.375771478105965
 30
0.0
 10
1.043859088876161
 20
-4.39086962809122
 30
0.0
 10
1.057916854630649
 20
-4.391009202635536
 30
0.0
 10
1.073557350930931
 20
-4.388783540927458
 30
0.0
 10
1.267515976399586
 20
-4.361186942360948
 30
0.0
 10
1.462331438226998
 20
-4.338665736126257
 30
0.0
 10
1.655363299446486
 20
-4.305692505204307
 30
0.0
 10
2.097008521339957
 20
-4.230251961948422
 30
0.0
 10
2.538003175319722
 20
-4.150923916187341
 30
0.0
 10
2.978777625493851
 20
-4.070519941475165
 30
0.0
 10
3.096943456943892
 20
-4.048964711582938
 30
0.0
 10
3.219661255089426
 20
-4.042648712420386
 30
0.0
 10
3.329903515851129
 20
-3.989099030649767
 30
0.0
 10
3.393055054684636
 20
-3.958423508008208
 30
0.0
 10
3.452021967948793
 20
-3.955270529094024
 30
0.0
 10
3.514476487666697
 20
-3.987300878741912
 30
0.0
 10
3.537307378928567
 20
-3.999009576394478
 30
0.0
 10
3.563345160732347
 20
-4.009611719026806
 30
0.0
 10
3.589120304929894
 20
-3.994466374771137
 30
0.0
 10
3.611238107471182
 20
-3.981469373950782
 30
0.0
 10
3.623907986640107
 20
-3.987177872398964
 30
0.0
 10
3.633121896390094
 20
-4.009755059071418
 30
0.0
 10
3.63826718303158
 20
-4.022363460261254
 30
0.0
 10
3.646813199824969
 20
-4.033556786439982
 30
0.0
 10
3.652321559103762
 20
-4.046051218487542
 30
0.0
 10
3.660298324123333
 20
-4.064145508015523
 30
0.0
 10
3.670053798000607
 20
-4.07016818694923
 30
0.0
 10
3.690255007431688
 20
-4.061554232885126
 30
0.0
 10
3.729751027073285
 20
-4.044712820490127
 30
0.0
 10
3.770075545147797
 20
-4.029573315229451
 30
0.0
 10
3.812102359253281
 20
-4.020780384254597
 30
0.0
 10
3.888964520642831
 20
-4.004699134841303
 30
0.0
 10
3.962804945569208
 20
-3.981940628298617
 30
0.0
 10
4.03324551882795
 20
-3.94797775915481
 30
0.0
 10
4.065052288816156
 20
-3.932642131617538
 30
0.0
 10
4.079585237811342
 20
-3.914216283504326
 30
0.0
 10
4.068579064932035
 20
-3.877854353349701
 30
0.0
 10
4.062728222197241
 20
-3.858523781032141
 30
0.0
 10
4.05960117750505
 20
-3.837183184656775
 30
0.0
 10
4.064300030433464
 20
-3.811962616776782
 30
0.0
 10
4.070760513806741
 20
-3.818923018556537
 30
0.0
 10
4.073856423639401
 20
-3.821402726017924
 30
0.0
 10
4.075876172114072
 20
-3.824568758666449
 30
0.0
 10
4.093288091274821
 20
-3.85186436824266
 30
0.0
 10
4.095343996360725
 20
-3.896495337046467
 30
0.0
 10
4.12484628456112
 20
-3.905951261388837
 30
0.0
 10
4.155206790102006
 20
-3.915682318286119
 30
0.0
 10
4.188410109197169
 20
-3.886712818311808
 30
0.0
 10
4.221488386678654
 20
-3.879039983876105
 30
0.0
 10
4.259613022296005
 20
-3.870197082981879
 30
0.0
 10
4.296182421457362
 20
-3.831703126559887
 30
0.0
 10
4.338107518650329
 20
-3.870375567695924
 30
0.0
 10
4.339578389680229
 20
-3.871732151935728
 30
0.0
 10
4.344978279125522
 20
-3.871689476265727
 30
0.0
 10
4.345832981239886
 20
-3.870441589467772
 30
0.0
 10
4.375223284380606
 20
-3.827526433632
 30
0.0
 10
4.41926655637869
 20
-3.840845259210912
 30
0.0
 10
4.459885495992643
 20
-3.839491185304647
 30
0.0
 10
4.468622841520224
 20
-3.839200237648457
 30
0.0
 10
4.477345121793077
 20
-3.832015663084424
 30
0.0
 10
4.485687255473421
 20
-3.827319582149079
 30
0.0
 10
4.54240291751623
 20
-3.79539265824264
 30
0.0
 10
4.568521549520028
 20
-3.737452152093915
 30
0.0
 10
4.60298482607987
 20
-3.687070260205322
 30
0.0
 10
4.655018551915569
 20
-3.611002047035097
 30
0.0
 10
4.661752960274876
 20
-3.529291921788096
 30
0.0
 10
4.616921026775925
 20
-3.442217058431298
 30
0.0
 10
4.599703270005395
 20
-3.408775854782713
 30
0.0
 10
4.590392980692741
 20
-3.372041737845014
 30
0.0
 10
4.587087002136766
 20
-3.334573941599956
 30
0.0
 10
4.58193786576746
 20
-3.276217001571593
 30
0.0
 10
4.559184075672698
 20
-3.224526798106833
 30
0.0
 10
4.537186824177827
 20
-3.171642554941046
 30
0.0
 10
4.516923554485174
 20
-3.122927022449908
 30
0.0
 10
4.482420103912798
 20
-3.088902212812096
 30
0.0
 10
4.435239241544246
 20
-3.069990113094036
 30
0.0
 10
4.373436043002786
 20
-3.045216133549123
 30
0.0
 10
4.306073765491899
 20
-3.055930739123596
 30
0.0
 10
4.241592969022197
 20
-3.046855130311112
 30
0.0
 10
4.225646899139873
 20
-3.044610390068227
 30
0.0
 10
4.211104910991935
 20
-3.057365143702908
 30
0.0
 10
4.199786887341158
 20
-3.070199725943843
 30
0.0
 10
4.197551203549639
 20
-3.072734660742854
 30
0.0
 10
4.193561924115683
 20
-3.073724736287229
 30
0.0
 10
4.190489616515379
 20
-3.075369255783016
 30
0.0
 10
4.179762150847233
 20
-3.065953496777158
 30
0.0
 10
4.187771342399603
 20
-3.049512820419775
 30
0.0
 10
4.173890718931109
 20
-3.041382603214843
 30
0.0
 10
4.139425433670643
 20
-3.058588178198912
 30
0.0
 10
4.110972189369678
 20
-3.111175900160712
 30
0.0
 10
4.062265718879265
 20
-3.065428335002555
 30
0.0
 10
4.060865654546155
 20
-3.064113673332688
 30
0.0
 10
4.056956220961916
 20
-3.065445907337309
 30
0.0
 10
4.05421836201506
 20
-3.065581214314584
 30
0.0
 10
4.026833746444709
 20
-3.066934033054117
 30
0.0
 10
3.999456161326482
 20
-3.069140867260709
 30
0.0
 10
3.972061502253053
 20
-3.069378846879393
 30
0.0
 10
3.95105501333046
 20
-3.069561599160377
 30
0.0
 10
3.945468816902576
 20
-3.075898685124558
 30
0.0
 10
3.953805426656193
 20
-3.096487436607554
 30
0.0
 10
3.969219190873825
 20
-3.134553130129309
 30
0.0
 10
3.982674471985749
 20
-3.173417109713707
 30
0.0
 10
3.996531493221861
 20
-3.212096830816942
 30
0.0
 10
3.997664902547462
 20
-3.215261106232042
 30
0.0
 10
3.995637119270238
 20
-3.219557542069348
 30
0.0
 10
3.99528509448631
 20
-3.22193357275589
 30
0.0
 10
3.981727369642815
 20
-3.224204922534176
 30
0.0
 10
3.975155403385037
 20
-3.206408164003682
 30
0.0
 10
3.958708664872802
 20
-3.213637924571281
 30
0.0
 10
3.981169955220366
 20
-3.373120417891641
 30
0.0
 10
4.003557425820039
 20
-3.533065063614963
 30
0.0
 10
4.026393338833486
 20
-3.69294594686658
 30
0.0
 10
4.029164341340573
 20
-3.712348063689786
 30
0.0
 10
4.030809467149462
 20
-3.731396976585226
 30
0.0
 10
4.021629203134883
 20
-3.7492361597524
 30
0.0
 10
4.007588887967055
 20
-3.776517962494179
 30
0.0
 10
3.967132150928288
 20
-3.783049348273607
 30
0.0
 10
3.955271778109818
 20
-3.758855004740856
 30
0.0
 10
3.934744866460556
 20
-3.716982641453594
 30
0.0
 10
3.918623537449043
 20
-3.673021178602362
 30
0.0
 10
3.917149151192992
 20
-3.625508597938985
 30
0.0
 10
3.916268838145697
 20
-3.597131285644537
 30
0.0
 10
3.92755020301014
 20
-3.573433235050793
 30
0.0
 10
3.954322667066183
 20
-3.56233505051283
 30
0.0
 10
3.974336355706681
 20
-3.554038649228182
 30
0.0
 10
3.975906155242203
 20
-3.541435017672054
 30
0.0
 10
3.973221526861809
 20
-3.523485379829556
 30
0.0
 10
3.967343064493535
 20
-3.484187614611124
 30
0.0
 10
3.962899316544078
 20
-3.444677224142626
 30
0.0
 10
3.957222226413099
 20
-3.405347075621623
 30
0.0
 10
3.946455591082844
 20
-3.330751761665422
 30
0.0
 10
3.935263613396021
 20
-3.256217699847361
 30
0.0
 10
3.924186633819772
 20
-3.181667320861404
 30
0.0
 10
3.919439572076473
 20
-3.149720314286671
 30
0.0
 10
3.891277589365624
 20
-3.137714393144152
 30
0.0
 10
3.86827394985034
 20
-3.135511575471203
 30
0.0
 10
3.849213389654677
 20
-3.133685809894561
 30
0.0
 10
3.856426131410646
 20
-3.163470917232846
 30
0.0
 10
3.85142145381264
 20
-3.178891394043451
 30
0.0
 10
3.846228460531417
 20
-3.194891757899591
 30
0.0
 10
3.849659823367776
 20
-3.213400698052636
 30
0.0
 10
3.836142774711789
 20
-3.231322220159604
 30
0.0
 10
3.825531813679693
 20
-3.186014465435973
 30
0.0
 10
3.815647500097359
 20
-3.14380923192266
 30
0.0
 10
3.803476280857644
 20
-3.091839554076008
 30
0.0
  0
SPLINE
  5
4B
330
45
100
AcDbEntity
  8
Layer 1
370
     0
100
AcDbSpline
210
0.0
220
0.0
230
1.0
 70
    11
 71
     3
 72
   158
 73
   154
 74
     0
 42
0.0000000001
 43
0.0000000001
 12
1.0
 22
0.0
 32
0.0
 13
1.0
 23
0.0
 33
0.0
 40
0.0
 40
0.0
 40
0.0
 40
0.0
 40
1.0
 40
1.0
 40
1.0
 40
2.0
 40
2.0
 40
2.0
 40
3.0
 40
3.0
 40
3.0
 40
4.0
 40
4.0
 40
4.0
 40
5.0
 40
5.0
 40
5.0
 40
6.0
 40
6.0
 40
6.0
 40
7.0
 40
7.0
 40
7.0
 40
8.0
 40
8.0
 40
8.0
 40
9.0
 40
9.0
 40
9.0
 40
10.0
 40
10.0
 40
10.0
 40
11.0
 40
11.0
 40
11.0
 40
12.0
 40
12.0
 40
12.0
 40
13.0
 40
13.0
 40
13.0
 40
14.0
 40
14.0
 40
14.0
 40
15.0
 40
15.0
 40
15.0
 40
16.0
 40
16.0
 40
16.0
 40
17.0
 40
17.0
 40
17.0
 40
18.0
 40
18.0
 40
18.0
 40
19.0
 40
19.0
 40
19.0
 40
20.0
 40
20.0
 40
20.0
 40
21.0
 40
21.0
 40
21.0
 40
22.0
 40
22.0
 40
22.0
 40
23.0
 40
23.0
 40
23.0
 40
24.0
 40
24.0
 40
24.0
 40
25.0
 40
25.0
 40
25.0
 40
26.0
 40
26.0
 40
26.0
 40
27.0
 40
27.0
 40
27.0
 40
28.0
 40
28.0
 40
28.0
 40
29.0
 40
29.0
 40
29.0
 40
30.0
 40
30.0
 40
30.0
 40
31.0
 40
31.0
 40
31.0
 40
32.0
 40
32.0
 40
32.0
 40
33.0
 40
33.0
 40
33.0
 40
34.0
 40
34.0
 40
34.0
 40
35.0
 40
35.0
 40
35.0
 40
36.0
 40
36.0
 40
36.0
 40
37.0
 40
37.0
 40
37.0
 40
38.0
 40
38.0
 40
38.0
 40
39.0
 40
39.0
 40
39.0
 40
40.0
 40
40.0
 40
40.0
 40
41.0
 40
41.0
 40
41.0
 40
42.0
 40
42.0
 40
42.0
 40
43.0
 40
43.0
 40
43.0
 40
44.0
 40
44.0
 40
44.0
 40
45.0
 40
45.0
 40
45.0
 40
46.0
 40
46.0
 40
46.0
 40
47.0
 40
47.0
 40
47.0
 40
48.0
 40
48.0
 40
48.0
 40
49.0
 40
49.0
 40
49.0
 40
50.0
 40
50.0
 40
50.0
 40
51.0
 40
51.0
 40
51.0
 40
51.0
 10
2.110462798101518
 20
-1.963919336227314
 30
0.0
 10
2.088781134682638
 20
-1.98212000742285
 30
0.0
 10
2.067360853432092
 20
-2.000643256477032
 30
0.0
 10
2.045371105555419
 20
-2.01846361214272
 30
0.0
 10
1.966170550932765
 20
-2.082647066748184
 30
0.0
 10
1.883938867072553
 20
-2.102776176161758
 30
0.0
 10
1.794022647897931
 20
-2.037986978075423
 30
0.0
 10
1.77091882443915
 20
-2.021339199201798
 30
0.0
 10
1.742530109645688
 20
-2.018060954644435
 30
0.0
 10
1.715180144161018
 20
-2.028188895272883
 30
0.0
 10
1.614195231300237
 20
-2.065585584908743
 30
0.0
 10
1.521859783314792
 20
-2.042427758090702
 30
0.0
 10
1.439472174068859
 20
-1.981813495698791
 30
0.0
 10
1.280540767859545
 20
-1.864884419152481
 30
0.0
 10
1.116082798522054
 20
-1.7552932985489
 30
0.0
 10
0.9634479154978205
 20
-1.629987866594977
 30
0.0
 10
0.8692116090056868
 20
-1.552624658888135
 30
0.0
 10
0.7763006682922524
 20
-1.473495054992655
 30
0.0
 10
0.6855534747793525
 20
-1.392084813084782
 30
0.0
 10
0.6142656940792222
 20
-1.32813193261408
 30
0.0
 10
0.5397338618756622
 20
-1.325690758772427
 30
0.0
 10
0.4585680447826361
 20
-1.366987879131178
 30
0.0
 10
0.4500262964780606
 20
-1.371333768539039
 30
0.0
 10
0.4414329496763053
 20
-1.375682293797089
 30
0.0
 10
0.4325381722375394
 20
-1.379209563440655
 30
0.0
 10
0.4102483747055506
 20
-1.388048949867943
 30
0.0
 10
0.3987751789317397
 20
-1.404942741427526
 30
0.0
 10
0.3918082519143
 20
-1.427354120570309
 30
0.0
 10
0.3691002680217126
 20
-1.500401060804936
 30
0.0
 10
0.3960875375004333
 20
-1.560494177955964
 30
0.0
 10
0.4438723910371007
 20
-1.611752803830073
 30
0.0
 10
0.5732753959379503
 20
-1.750562826044175
 30
0.0
 10
0.724166224647724
 20
-1.84434474468997
 30
0.0
 10
0.9240377114827727
 20
-1.826162147895856
 30
0.0
 10
0.9502049289328498
 20
-1.823781598608965
 30
0.0
 10
0.9591440233290692
 20
-1.829183083266369
 30
0.0
 10
0.9506301457456376
 20
-1.856877208290522
 30
0.0
 10
0.9426252226821058
 20
-1.882915517318022
 30
0.0
 10
0.938008726479173
 20
-1.910177739458264
 30
0.0
 10
0.9339866801163528
 20
-1.937211646763937
 30
0.0
 10
0.9288120162282717
 20
-1.97199281989448
 30
0.0
 10
0.9442427288574132
 20
-1.991488572158346
 30
0.0
 10
0.9801186241292549
 20
-1.99591905980617
 30
0.0
 10
1.013148441708255
 20
-1.999998351793074
 30
0.0
 10
1.045867161778536
 20
-1.996312931137077
 30
0.0
 10
1.078677403270869
 20
-1.995128053710712
 30
0.0
 10
1.183272046088683
 20
-1.991350897934164
 30
0.0
 10
1.217989769179199
 20
-2.021596341041762
 30
0.0
 10
1.232917215349529
 20
-2.127278045953782
 30
0.0
 10
1.24231855406635
 20
-2.193836618178036
 30
0.0
 10
1.302478783224008
 20
-2.232195459740119
 30
0.0
 10
1.366507367575511
 20
-2.211731611320526
 30
0.0
 10
1.396247345804037
 20
-2.202226568961186
 30
0.0
 10
1.424860407664217
 20
-2.19171691177995
 30
0.0
 10
1.461351945586519
 20
-2.19688531678326
 30
0.0
 10
1.42559933431533
 20
-2.23578293483696
 30
0.0
 10
1.385430594728177
 20
-2.25887775228336
 30
0.0
 10
1.344485994526041
 20
-2.281058055224674
 30
0.0
 10
1.309611938689095
 20
-2.29994982124112
 30
0.0
 10
1.273463990026863
 20
-2.316665881186762
 30
0.0
 10
1.243319670890375
 20
-2.343520676195036
 30
0.0
 10
1.219093611503227
 20
-2.365103017689383
 30
0.0
 10
1.215882201384905
 20
-2.388446358155319
 30
0.0
 10
1.230572205659946
 20
-2.416895968055453
 30
0.0
 10
1.256443516399738
 20
-2.467000719122312
 30
0.0
 10
1.300373547900297
 20
-2.492939493425335
 30
0.0
 10
1.351546075034813
 20
-2.508634098657454
 30
0.0
 10
1.43286329793716
 20
-2.533574262282071
 30
0.0
 10
1.516297691294388
 20
-2.535846365160473
 30
0.0
 10
1.600006272286426
 20
-2.526244088373283
 30
0.0
 10
1.73650024146808
 20
-2.510586134010699
 30
0.0
 10
1.870715339794856
 20
-2.481487853926309
 30
0.0
 10
1.974934260655977
 20
-2.386333410422771
 30
0.0
 10
2.021269962238155
 20
-2.344027763568179
 30
0.0
 10
2.068286613330934
 20
-2.328143879187855
 30
0.0
 10
2.125735702188118
 20
-2.327112634173571
 30
0.0
 10
2.15860532589257
 20
-2.326522454760556
 30
0.0
 10
2.191506586631804
 20
-2.327188195212834
 30
0.0
 10
2.224386002751784
 20
-2.327747246490061
 30
0.0
 10
2.313804888611382
 20
-2.329267554778476
 30
0.0
 10
2.402258665946129
 20
-2.332816231057475
 30
0.0
 10
2.488277995382822
 20
-2.295418159340998
 30
0.0
 10
2.575363338293148
 20
-2.25755662378909
 30
0.0
 10
2.67676502451761
 20
-2.281781868242951
 30
0.0
 10
2.736701396607082
 20
-2.355436359789021
 30
0.0
 10
2.767940042689916
 20
-2.393824846005411
 30
0.0
 10
2.768252339321937
 20
-2.40207256853585
 30
0.0
 10
2.739763342913925
 20
-2.411303949083112
 30
0.0
 10
2.700878414111407
 20
-2.42390431720566
 30
0.0
 10
2.662796965557365
 20
-2.438983639689468
 30
0.0
 10
2.624378055298949
 20
-2.453021926858216
 30
0.0
 10
2.7287878027191
 20
-2.453748668415276
 30
0.0
 10
2.828832894776699
 20
-2.474111740913902
 30
0.0
 10
2.92981856090023
 20
-2.482043390736597
 30
0.0
 10
3.053017442844571
 20
-2.491719722362909
 30
0.0
 10
3.1707920798486
 20
-2.478934342659171
 30
0.0
 10
3.274880184081793
 20
-2.403970762774065
 30
0.0
 10
3.326731777570052
 20
-2.366627292209046
 30
0.0
 10
3.326975583607994
 20
-2.367328428364102
 30
0.0
 10
3.273360602061757
 20
-2.334807810577697
 30
0.0
 10
3.187213458515442
 20
-2.282555720208923
 30
0.0
 10
3.101242327361105
 20
-2.230014439417434
 30
0.0
 10
3.007229112181726
 20
-2.172741179921129
 30
0.0
 10
3.03401789693031
 20
-2.162098369885598
 30
0.0
 10
3.052578792846387
 20
-2.154487038621394
 30
0.0
 10
3.071312437015952
 20
-2.147327065325953
 30
0.0
 10
3.122454708097318
 20
-2.127780353291428
 30
0.0
 10
3.175696824590709
 20
-2.113744576456194
 30
0.0
 10
3.224858516859487
 20
-2.089003231247173
 30
0.0
 10
3.285661382491551
 20
-2.058402767578173
 30
0.0
 10
3.3257018163265
 20
-2.011163060169578
 30
0.0
 10
3.344402568023345
 20
-1.944958285005416
 30
0.0
 10
3.35221867322846
 20
-1.917287129533078
 30
0.0
 10
3.346960899352199
 20
-1.908977423480703
 30
0.0
 10
3.319006063892907
 20
-1.918575934767583
 30
0.0
 10
3.256840545976906
 20
-1.939920547676593
 30
0.0
 10
3.194246923740997
 20
-1.960070743891833
 30
0.0
 10
3.132456028490853
 20
-1.982442836314855
 30
0.0
 10
3.005654290894603
 20
-2.028352820052406
 30
0.0
 10
2.883551155139179
 20
-2.035797967236906
 30
0.0
 10
2.771958294297216
 20
-1.94337903418145
 30
0.0
 10
2.771145021633149
 20
-1.942705511695244
 30
0.0
 10
2.769285467032963
 20
-1.943295440074874
 30
0.0
 10
2.765810414958095
 20
-1.943295440074874
 30
0.0
 10
2.764120595560446
 20
-1.950451145803312
 30
0.0
 10
2.762176173358992
 20
-1.958086827302749
 30
0.0
 10
2.760521255134613
 20
-1.965784514040416
 30
0.0
 10
2.741378338213508
 20
-2.054824789197306
 30
0.0
 10
2.695511417138808
 20
-2.091474152541157
 30
0.0
 10
2.604841433056031
 20
-2.090118572434739
 30
0.0
 10
2.476258480183851
 20
-2.088195907983795
 30
0.0
 10
2.304724988451565
 20
-1.957229297368776
 30
0.0
 10
2.269764056312738
 20
-1.829350145962798
 30
0.0
 10
2.260535583483273
 20
-1.79559431856276
 30
0.0
 10
2.248127588657831
 20
-1.794329738046827
 30
0.0
 10
2.219714016194176
 20
-1.801948098244907
 30
0.0
 10
2.156252384202263
 20
-1.818963389947385
 30
0.0
 10
2.093453372327796
 20
-1.838885145811357
 30
0.0
 10
2.028296899186658
 20
-1.849307423046235
 30
0.0
 10
1.946942264235228
 20
-1.862320490001176
 30
0.0
 10
1.883145681414703
 20
-1.837400911111495
 30
0.0
 10
1.83802197956993
 20
-1.766386964486489
 30
0.0
 10
1.812935317510323
 20
-1.726906446987009
 30
0.0
 10
1.792583664990338
 20
-1.685136254274463
 30
0.0
 10
1.771722806862827
 20
-1.643512414006725
 30
0.0
 10
1.756590762907308
 20
-1.613319377469717
 30
0.0
 10
1.744691973689378
 20
-1.581268192053497
 30
0.0
 10
1.718809866183745
 20
-1.549059232174917
 30
0.0
 10
1.658852914600869
 20
-1.663515755710452
 30
0.0
 10
1.715213538808863
 20
-1.757360809244536
 30
0.0
 10
1.759322093577137
 20
-1.850655723185431
 30
0.0
 10
1.834961975260929
 20
-2.010643170095427
 30
0.0
 10
1.974341442885108
 20
-1.974664818904241
 30
0.0
 10
2.110462798101518
 20
-1.963919336227314
 30
0.0
  0
SPLINE
  5
4C
330
45
100
AcDbEntity
  8
Layer 1
370
     0
100
AcDbSpline
210
0.0
220
0.0
230
1.0
 70
    11
 71
     3
 72
    56
 73
    52
 74
     0
 42
0.0000000001
 43
0.0000000001
 12
1.0
 22
0.0
 32
0.0
 13
1.0
 23
0.0
 33
0.0
 40
0.0
 40
0.0
 40
0.0
 40
0.0
 40
1.0
 40
1.0
 40
1.0
 40
2.0
 40
2.0
 40
2.0
 40
3.0
 40
3.0
 40
3.0
 40
4.0
 40
4.0
 40
4.0
 40
5.0
 40
5.0
 40
5.0
 40
6.0
 40
6.0
 40
6.0
 40
7.0
 40
7.0
 40
7.0
 40
8.0
 40
8.0
 40
8.0
 40
9.0
 40
9.0
 40
9.0
 40
10.0
 40
10.0
 40
10.0
 40
11.0
 40
11.0
 40
11.0
 40
12.0
 40
12.0
 40
12.0
 40
13.0
 40
13.0
 40
13.0
 40
14.0
 40
14.0
 40
14.0
 40
15.0
 40
15.0
 40
15.0
 40
16.0
 40
16.0
 40
16.0
 40
17.0
 40
17.0
 40
17.0
 40
17.0
 10
3.021468790886198
 20
-2.741284028221899
 30
0.0
 10
3.008530750184314
 20
-2.700357809642279
 30
0.0
 10
2.987349504307733
 20
-2.715459474094511
 30
0.0
 10
2.967549240108256
 20
-2.723369032982166
 30
0.0
 10
2.858273917608156
 20
-2.767018963442246
 30
0.0
 10
2.748824340329141
 20
-2.810246404769209
 30
0.0
 10
2.639981641725297
 20
-2.854950424278766
 30
0.0
 10
2.618680375986564
 20
-2.863699438698935
 30
0.0
 10
2.602909314145917
 20
-2.863003574244304
 30
0.0
 10
2.583546695594325
 20
-2.84943246014556
 30
0.0
 10
2.525274792745171
 20
-2.808589835672491
 30
0.0
 10
2.464096049009375
 20
-2.77181093911847
 30
0.0
 10
2.406742373431712
 20
-2.729776157251813
 30
0.0
 10
2.378498285082982
 20
-2.709075695926686
 30
0.0
 10
2.365946919250721
 20
-2.717273943170312
 30
0.0
 10
2.349180295164602
 20
-2.742184986926001
 30
0.0
 10
2.299048902670898
 20
-2.81666859104007
 30
0.0
 10
2.295777231533912
 20
-2.901047929931009
 30
0.0
 10
2.350142964937365
 20
-2.976124223791658
 30
0.0
 10
2.405473376814193
 20
-3.05253325372357
 30
0.0
 10
2.46428938644418
 20
-3.126672189043928
 30
0.0
 10
2.525363175572491
 20
-3.198592993656803
 30
0.0
 10
2.576638271982498
 20
-3.25897429709716
 30
0.0
 10
2.638755078908439
 20
-3.314117789626253
 30
0.0
 10
2.72030556217045
 20
-3.317259723072892
 30
0.0
 10
2.789611257532518
 20
-3.319929713815832
 30
0.0
 10
2.818570945477581
 20
-3.353695457033331
 30
0.0
 10
2.838065133919852
 20
-3.40961564675672
 30
0.0
 10
2.838960512221774
 20
-3.412183466924994
 30
0.0
 10
2.840678704515767
 20
-3.414464607004093
 30
0.0
 10
2.841570818679202
 20
-3.417032929239035
 30
0.0
 10
2.848808669192926
 20
-3.437874722341904
 30
0.0
 10
2.860907324122687
 20
-3.441762224847126
 30
0.0
 10
2.882697708462729
 20
-3.435263975470308
 30
0.0
 10
3.003415342964546
 20
-3.39926403541075
 30
0.0
 10
3.122514215853244
 20
-3.359026401318488
 30
0.0
 10
3.239526802059067
 20
-3.312146926771498
 30
0.0
 10
3.269848891200556
 20
-3.299999171784495
 30
0.0
 10
3.270297082526668
 20
-3.288062284814057
 30
0.0
 10
3.259068697141098
 20
-3.261310664513884
 30
0.0
 10
3.187468563494374
 20
-3.090723961855095
 30
0.0
 10
3.148244917549543
 20
-2.912354723185343
 30
0.0
 10
3.135150449286736
 20
-2.728020178947266
 30
0.0
 10
3.131636227549759
 20
-2.678550291230269
 30
0.0
 10
3.114924842730741
 20
-2.632309696566785
 30
0.0
 10
3.098816319185693
 20
-2.575945679875152
 30
0.0
 10
3.083673227376771
 20
-2.608052092629072
 30
0.0
 10
3.072190239187421
 20
-2.632241164461397
 30
0.0
 10
3.060846102428564
 20
-2.656495002898762
 30
0.0
 10
3.048864705397566
 20
-2.682111199343151
 30
0.0
 10
3.037015882607597
 20
-2.707789401025694
 30
0.0
 10
3.021468790886198
 20
-2.741284028221899
 30
0.0
  0
SPLINE
  5
4D
330
45
100
AcDbEntity
  8
Layer 1
370
     0
100
AcDbSpline
210
0.0
220
0.0
230
1.0
 70
    11
 71
     3
 72
    38
 73
    34
 74
     0
 42
0.0000000001
 43
0.0000000001
 12
1.0
 22
0.0
 32
0.0
 13
1.0
 23
0.0
 33
0.0
 40
0.0
 40
0.0
 40
0.0
 40
0.0
 40
1.0
 40
1.0
 40
1.0
 40
2.0
 40
2.0
 40
2.0
 40
3.0
 40
3.0
 40
3.0
 40
4.0
 40
4.0
 40
4.0
 40
5.0
 40
5.0
 40
5.0
 40
6.0
 40
6.0
 40
6.0
 40
7.0
 40
7.0
 40
7.0
 40
8.0
 40
8.0
 40
8.0
 40
9.0
 40
9.0
 40
9.0
 40
10.0
 40
10.0
 40
10.0
 40
11.0
 40
11.0
 40
11.0
 40
11.0
 10
2.692355748462735
 20
-1.210954709598278
 30
0.0
 10
2.716857125378813
 20
-1.282247303245185
 30
0.0
 10
2.799689159637182
 20
-1.388329730673313
 30
0.0
 10
2.856101005711051
 20
-1.426021007948988
 30
0.0
 10
2.873060716144386
 20
-1.437352653505261
 30
0.0
 10
2.877896411802617
 20
-1.426066068435855
 30
0.0
 10
2.884755873336821
 20
-1.41655730157269
 30
0.0
 10
2.916046658352924
 20
-1.373181625050746
 30
0.0
 10
2.944423320942658
 20
-1.327958719600487
 30
0.0
 10
2.969118286381065
 20
-1.280482789806658
 30
0.0
 10
3.071218530261881
 20
-1.084196673146986
 30
0.0
 10
3.117142699304269
 20
-0.8717950938388286
 30
0.0
 10
3.143152359299342
 20
-0.6547811532185506
 30
0.0
 10
3.159591220000872
 20
-0.5176193151034012
 30
0.0
 10
3.045594012589567
 20
-0.3908729805623478
 30
0.0
 10
2.899713003420351
 20
-0.3846878751488576
 30
0.0
 10
2.810261315923576
 20
-0.3808952765115742
 30
0.0
 10
2.71797230456112
 20
-0.4528060929405657
 30
0.0
 10
2.692617737940534
 20
-0.5386730490525148
 30
0.0
 10
2.677563048342891
 20
-0.5896579619601551
 30
0.0
 10
2.674272679392541
 20
-0.6418874496404466
 30
0.0
 10
2.683486079781737
 20
-0.6928817403763661
 30
0.0
 10
2.702049486573615
 20
-0.795628562125949
 30
0.0
 10
2.713434048432494
 20
-0.8972735984890252
 30
0.0
 10
2.700600460162907
 20
-1.002711497783227
 30
0.0
 10
2.690532852648908
 20
-1.085422469009889
 30
0.0
 10
2.733418108738786
 20
-1.135287734257948
 30
0.0
 10
2.8126068622453
 20
-1.163119802109602
 30
0.0
 10
2.825091940957084
 20
-1.167507614087425
 30
0.0
 10
2.842583957055063
 20
-1.16422899298003
 30
0.0
 10
2.85156159339446
 20
-1.181317586421579
 30
0.0
 10
2.797034661766146
 20
-1.191468120051784
 30
0.0
 10
2.744905365416924
 20
-1.201172316380305
 30
0.0
 10
2.692355748462735
 20
-1.210954709598278
 30
0.0
  0
SPLINE
  5
4E
330
45
100
AcDbEntity
  8
Layer 1
370
     0
100
AcDbSpline
210
0.0
220
0.0
230
1.0
 70
    11
 71
     3
 72
    32
 73
    28
 74
     0
 42
0.0000000001
 43
0.0000000001
 12
1.0
 22
0.0
 32
0.0
 13
1.0
 23
0.0
 33
0.0
 40
0.0
 40
0.0
 40
0.0
 40
0.0
 40
1.0
 40
1.0
 40
1.0
 40
2.0
 40
2.0
 40
2.0
 40
3.0
 40
3.0
 40
3.0
 40
4.0
 40
4.0
 40
4.0
 40
5.0
 40
5.0
 40
5.0
 40
6.0
 40
6.0
 40
6.0
 40
7.0
 40
7.0
 40
7.0
 40
8.0
 40
8.0
 40
8.0
 40
9.0
 40
9.0
 40
9.0
 40
9.0
 10
2.183862225329802
 20
-0.5835632419941703
 30
0.0
 10
2.097774087364264
 20
-0.5716781306527865
 30
0.0
 10
2.043367426685652
 20
-0.6191455253125974
 30
0.0
 10
2.00341763546621
 20
-0.6923304083747376
 30
0.0
 10
1.955278371813683
 20
-0.780517734956321
 30
0.0
 10
1.951069139661728
 20
-0.8725079030447835
 30
0.0
 10
1.979546237282509
 20
-0.9667472044598071
 30
0.0
 10
2.003083546782591
 20
-1.044639023304588
 30
0.0
 10
2.029673039827319
 20
-1.121604859596295
 30
0.0
 10
2.05395932686262
 20
-1.199278504837985
 30
0.0
 10
2.056747300233901
 20
-1.208195143856137
 30
0.0
 10
2.064433986563245
 20
-1.214879326465469
 30
0.0
 10
2.073707353744958
 20
-1.216012423112753
 30
0.0
 10
2.11299000026194
 20
-1.220812301538015
 30
0.0
 10
2.152337584007455
 20
-1.220852319509921
 30
0.0
 10
2.191622338005118
 20
-1.217011516823782
 30
0.0
 10
2.205974755031977
 20
-1.215608240380283
 30
0.0
 10
2.216746914288933
 20
-1.208575540994843
 30
0.0
 10
2.223054987502577
 20
-1.194230240035305
 30
0.0
 10
2.285403297175132
 20
-1.052433046436691
 30
0.0
 10
2.344533166277188
 20
-0.9092896864823766
 30
0.0
 10
2.36707606008747
 20
-0.7548459346242503
 30
0.0
 10
2.38156808180751
 20
-0.6555590428212983
 30
0.0
 10
2.321128539900378
 20
-0.587982872449465
 30
0.0
 10
2.220458741949541
 20
-0.5836270044658501
 30
0.0
 10
2.209525886642874
 20
-0.5831539948703847
 30
0.0
 10
2.198554614936837
 20
-0.5835632419941703
 30
0.0
 10
2.183862225329802
 20
-0.5835632419941703
 30
0.0
  0
SPLINE
  5
4F
330
45
100
AcDbEntity
  8
Layer 1
370
     0
100
AcDbSpline
210
0.0
220
0.0
230
1.0
 70
    11
 71
     3
 72
    29
 73
    25
 74
     0
 42
0.0000000001
 43
0.0000000001
 12
1.0
 22
0.0
 32
0.0
 13
1.0
 23
0.0
 33
0.0
 40
0.0
 40
0.0
 40
0.0
 40
0.0
 40
1.0
 40
1.0
 40
1.0
 40
2.0
 40
2.0
 40
2.0
 40
3.0
 40
3.0
 40
3.0
 40
4.0
 40
4.0
 40
4.0
 40
5.0
 40
5.0
 40
5.0
 40
6.0
 40
6.0
 40
6.0
 40
7.0
 40
7.0
 40
7.0
 40
8.0
 40
8.0
 40
8.0
 40
8.0
 10
4.254978949962656
 20
-1.184587044811577
 30
0.0
 10
4.196468011739549
 20
-1.188220501563503
 30
0.0
 10
4.13204145018666
 20
-1.206639195226153
 30
0.0
 10
4.080486642215192
 20
-1.248899530560518
 30
0.0
 10
3.965958458463572
 20
-1.342779786203613
 30
0.0
 10
3.903329022505962
 20
-1.472311042442609
 30
0.0
 10
3.85128821866758
 20
-1.607047598817568
 30
0.0
 10
3.841192655970745
 20
-1.633185576175947
 30
0.0
 10
3.850935381229621
 20
-1.662954214739051
 30
0.0
 10
3.874778809899605
 20
-1.677671726614752
 30
0.0
 10
3.934499365743881
 20
-1.714534629263009
 30
0.0
 10
3.994281057409403
 20
-1.734798563693024
 30
0.0
 10
4.063142014525308
 20
-1.704871115807097
 30
0.0
 10
4.115445063478242
 20
-1.682139920172568
 30
0.0
 10
4.163387223382314
 20
-1.654354419007884
 30
0.0
 10
4.20336840054895
 20
-1.613803871841103
 30
0.0
 10
4.259387043476131
 20
-1.556987493047321
 30
0.0
 10
4.305946715177596
 20
-1.492513341819037
 30
0.0
 10
4.350660893183228
 20
-1.426807620960732
 30
0.0
 10
4.372468853653674
 20
-1.394761581728251
 30
0.0
 10
4.385946732647552
 20
-1.358667755194675
 30
0.0
 10
4.389366043280132
 20
-1.31966344796591
 30
0.0
 10
4.396041959795083
 20
-1.243509467920679
 30
0.0
 10
4.339991679833095
 20
-1.183410451485884
 30
0.0
 10
4.254978949962656
 20
-1.184587044811577
 30
0.0
  0
SPLINE
  5
50
330
45
100
AcDbEntity
  8
Layer 1
370
     0
100
AcDbSpline
210
0.0
220
0.0
230
1.0
 70
    11
 71
     3
 72
    26
 73
    22
 74
     0
 42
0.0000000001
 43
0.0000000001
 12
1.0
 22
0.0
 32
0.0
 13
1.0
 23
0.0
 33
0.0
 40
0.0
 40
0.0
 40
0.0
 40
0.0
 40
1.0
 40
1.0
 40
1.0
 40
2.0
 40
2.0
 40
2.0
 40
3.0
 40
3.0
 40
3.0
 40
4.0
 40
4.0
 40
4.0
 40
5.0
 40
5.0
 40
5.0
 40
6.0
 40
6.0
 40
6.0
 40
7.0
 40
7.0
 40
7.0
 40
7.0
 10
3.279967720580417
 20
-4.142019261088282
 30
0.0
 10
3.297937807426276
 20
-4.16403890268364
 30
0.0
 10
3.311101324772911
 20
-4.181079046688057
 30
0.0
 10
3.325206169448165
 20
-4.197300319894818
 30
0.0
 10
3.402345797233339
 20
-4.286017013059665
 30
0.0
 10
3.493888812823671
 20
-4.357007739099546
 30
0.0
 10
3.594263582870781
 20
-4.417593634722556
 30
0.0
 10
3.639296642100008
 20
-4.444775526189864
 30
0.0
 10
3.687962436402914
 20
-4.454703393235932
 30
0.0
 10
3.739208908829015
 20
-4.456475688708375
 30
0.0
 10
3.821146318048224
 20
-4.45930985526421
 30
0.0
 10
3.872703636895494
 20
-4.415840919851663
 30
0.0
 10
3.905112012719782
 20
-4.345248332709667
 30
0.0
 10
3.937717241204963
 20
-4.274226980600739
 30
0.0
 10
3.921624536177281
 20
-4.209431757713926
 30
0.0
 10
3.878095993713411
 20
-4.148264468845229
 30
0.0
 10
3.86947213977093
 20
-4.136146084760513
 30
0.0
 10
3.858085820299038
 20
-4.135282027959343
 30
0.0
 10
3.845917111935099
 20
-4.134273878013548
 30
0.0
 10
3.659932023582744
 20
-4.118856413603175
 30
0.0
 10
3.474070470318616
 20
-4.114041593891872
 30
0.0
 10
3.279967720580417
 20
-4.142019261088282
 30
0.0
  0
ENDBLK
  5
48
330
45
100
AcDbEntity
  8
0
100
AcDbBlockEnd
  0
ENDSEC
  0
SECTION
  2
ENTITIES
  0
INSERT
  5
42
330
1F
100
AcDbEntity
  8
Layer 1
100
AcDbBlockReference
  2
block 2
 10
0.0
 20
0.0
 30
0.0
  0
ENDSEC
  0
SECTION
  2
OBJECTS
  0
DICTIONARY
  5
C
330
0
100
AcDbDictionary
281
     1
  3
ACAD_GROUP
350
D
  3
ACAD_LAYOUT
350
1A
  3
ACAD_MATERIAL
350
3B
  3
ACAD_MLEADERSTYLE
350
56
  3
ACAD_MLINESTYLE
350
17
  3
ACAD_PLOTSETTINGS
350
19
  3
ACAD_PLOTSTYLENAME
350
E
  3
ACAD_TABLESTYLE
350
55
  3
ACAD_VISUALSTYLE
350
2A
  0
SUN
  5
3F
330
29
100
AcDbSun
 90
        1
290
     0
 63
     7
421
 16777215
 40
1.0
291
     1
 91
  2455826
 92
 54000000
292
     0
 70
     2
 71
   256
280
     1
  0
DICTIONARY
  5
D
102
{ACAD_REACTORS
330
C
102
}
330
C
100
AcDbDictionary
281
     1
  0
DICTIONARY
  5
1A
102
{ACAD_REACTORS
330
C
102
}
330
C
100
AcDbDictionary
281
     1
  3
Layout1
350
1E
  3
Layout2
350
26
  3
Model
350
22
  0
DICTIONARY
  5
3B
102
{ACAD_REACTORS
330
C
102
}
330
C
100
AcDbDictionary
281
     1
  3
ByBlock
350
3D
  3
ByLayer
350
3C
  3
Global
350
3E
  0
DICTIONARY
  5
56
102
{ACAD_REACTORS
330
C
102
}
330
C
100
AcDbDictionary
281
     1
  0
DICTIONARY
  5
17
102
{ACAD_REACTORS
330
C
102
}
330
C
100
AcDbDictionary
281
     1
  3
Standard
350
18
  0
DICTIONARY
  5
19
102
{ACAD_REACTORS
330
C
102
}
330
C
100
AcDbDictionary
281
     1
  0
ACDBDICTIONARYWDFLT
  5
E
102
{ACAD_REACTORS
330
C
102
}
330
C
100
AcDbDictionary
281
     1
  3
Normal
350
F
100
AcDbDictionaryWithDefault
340
F
  0
DICTIONARY
  5
55
102
{ACAD_REACTORS
330
C
102
}
330
C
100
AcDbDictionary
281
     1
  0
DICTIONARY
  5
2A
102
{ACAD_REACTORS
330
C
102
}
330
C
100
AcDbDictionary
281
     1
  3
2dWireframe
350
2F
  3
3D Hidden
350
31
  3
3dWireframe
350
30
  3
Basic
350
32
  3
Brighten
350
36
  3
ColorChange
350
3A
  3
Conceptual
350
34
  3
Dim
350
35
  3
Facepattern
350
39
  3
Flat
350
2B
  3
FlatWithEdges
350
2C
  3
Gouraud
350
2D
  3
GouraudWithEdges
350
2E
  3
Linepattern
350
38
  3
Realistic
350
33
  3
Thicken
350
37
  0
LAYOUT
  5
1E
102
{ACAD_REACTORS
330
1A
102
}
330
1A
100
AcDbPlotSettings
  1

  2
none_device
  4

  6

 40
0.0
 41
0.0
 42
0.0
 43
0.0
 44
0.0
 45
0.0
 46
0.0
 47
0.0
 48
0.0
 49
0.0
140
0.0
141
0.0
142
1.0
143
1.0
 70
   688
 72
     0
 73
     0
 74
     5
  7

 75
    16
 76
     0
 77
     2
 78
   300
147
1.0
148
0.0
149
0.0
100
AcDbLayout
  1
Layout1
 70
     1
 71
     1
 10
0.0
 20
0.0
 11
12.0
 21
9.0
 12
0.0
 22
0.0
 32
0.0
 14
1.000000000000000E+20
 24
1.000000000000000E+20
 34
1.000000000000000E+20
 15
-1.000000000000000E+20
 25
-1.000000000000000E+20
 35
-1.000000000000000E+20
146
0.0
 13
0.0
 23
0.0
 33
0.0
 16
1.0
 26
0.0
 36
0.0
 17
0.0
 27
1.0
 37
0.0
 76
     0
330
1B
  0
LAYOUT
  5
26
102
{ACAD_REACTORS
330
1A
102
}
330
1A
100
AcDbPlotSettings
  1

  2
none_device
  4

  6

 40
0.0
 41
0.0
 42
0.0
 43
0.0
 44
0.0
 45
0.0
 46
0.0
 47
0.0
 48
0.0
 49
0.0
140
0.0
141
0.0
142
1.0
143
1.0
 70
   688
 72
     0
 73
     0
 74
     5
  7

 75
    16
 76
     0
 77
     2
 78
   300
147
1.0
148
0.0
149
0.0
100
AcDbLayout
  1
Layout2
 70
     1
 71
     2
 10
0.0
 20
0.0
 11
0.0
 21
0.0
 12
0.0
 22
0.0
 32
0.0
 14
0.0
 24
0.0
 34
0.0
 15
0.0
 25
0.0
 35
0.0
146
0.0
 13
0.0
 23
0.0
 33
0.0
 16
1.0
 26
0.0
 36
0.0
 17
0.0
 27
1.0
 37
0.0
 76
     0
330
23
  0
LAYOUT
  5
22
102
{ACAD_REACTORS
330
1A
102
}
330
1A
100
AcDbPlotSettings
  1

  2
none_device
  4

  6

 40
0.0
 41
0.0
 42
0.0
 43
0.0
 44
0.0
 45
0.0
 46
0.0
 47
0.0
 48
0.0
 49
0.0
140
0.0
141
0.0
142
1.0
143
1.0
 70
  1712
 72
     0
 73
     0
 74
     0
  7

 75
     0
 76
     0
 77
     2
 78
   300
147
1.0
148
0.0
149
0.0
100
AcDbLayout
  1
Model
 70
     1
 71
     0
 10
0.0
 20
0.0
 11
12.0
 21
9.0
 12
0.0
 22
0.0
 32
0.0
 14
1.000000000000000E+20
 24
1.000000000000000E+20
 34
1.000000000000000E+20
 15
-1.000000000000000E+20
 25
-1.000000000000000E+20
 35
-1.000000000000000E+20
146
0.0
 13
0.0
 23
0.0
 33
0.0
 16
1.0
 26
0.0
 36
0.0
 17
0.0
 27
1.0
 37
0.0
 76
     0
330
1F
331
29
  0
MATERIAL
  5
3D
102
{ACAD_REACTORS
330
3B
102
}
330
3B
100
AcDbMaterial
  1
ByBlock
 72
     1
 94
      127
  0
MATERIAL
  5
3C
102
{ACAD_REACTORS
330
3B
102
}
330
3B
100
AcDbMaterial
  1
ByLayer
 72
     1
 94
      127
  0
MATERIAL
  5
3E
102
{ACAD_REACTORS
330
3B
102
}
330
3B
100
AcDbMaterial
  1
Global
 72
     1
 94
      127
  0
MLINESTYLE
  5
18
102
{ACAD_REACTORS
330
17
102
}
330
17
100
AcDbMlineStyle
  2
Standard
 70
     0
  3

 62
   256
 51
90.0
 52
90.0
 71
     2
 49
0.5
 62
   256
  6
BYLAYER
 49
-0.5
 62
   256
  6
BYLAYER
  0
ACDBPLACEHOLDER
  5
F
102
{ACAD_REACTORS
330
E
102
}
330
E
  0
VISUALSTYLE
  5
2F
102
{ACAD_REACTORS
330
2A
102
}
330
2A
100
AcDbVisualStyle
  2
2dWireframe
 70
     4
177
     2
291
     0
 71
     0
176
     1
 72
     2
176
     1
 73
     0
176
     1
 90
        0
176
     1
 40
-0.6
176
     1
 41
-30.0
176
     1
 62
     5
 63
     7
421
 16777215
176
     1
 74
     1
176
     1
 91
        4
176
     1
 64
     7
176
     1
 65
   257
176
     1
 75
     1
176
     1
175
     1
176
     1
 42
1.0
176
     1
 92
        0
176
     1
 66
   257
176
     1
 43
1.0
176
     1
 76
     1
176
     1
 77
     6
176
     1
 78
     2
176
     1
 67
     7
176
     1
 79
     5
176
     1
170
     0
176
     1
171
     0
176
     1
290
     0
176
     1
 93
        1
176
     1
 44
0.0
176
     1
173
     0
176
     1
  0
VISUALSTYLE
  5
31
102
{ACAD_REACTORS
330
2A
102
}
330
2A
100
AcDbVisualStyle
  2
3D Hidden
 70
     6
177
     2
291
     0
 71
     1
176
     1
 72
     2
176
     1
 73
     2
176
     1
 90
        0
176
     1
 40
-0.6
176
     1
 41
-30.0
176
     1
 62
     5
 63
     7
421
 16777215
176
     1
 74
     2
176
     1
 91
        2
176
     1
 64
     7
176
     1
 65
   257
176
     1
 75
     2
176
     1
175
     1
176
     1
 42
40.0
176
     1
 92
        0
176
     1
 66
   257
176
     1
 43
1.0
176
     1
 76
     1
176
     1
 77
     6
176
     1
 78
     2
176
     1
 67
     7
176
     1
 79
     3
176
     1
170
     0
176
     1
171
     0
176
     1
290
     0
176
     1
 93
        1
176
     1
 44
0.0
176
     1
173
     0
176
     1
  0
VISUALSTYLE
  5
30
102
{ACAD_REACTORS
330
2A
102
}
330
2A
100
AcDbVisualStyle
  2
3dWireframe
 70
     5
177
     2
291
     0
 71
     0
176
     1
 72
     2
176
     1
 73
     0
176
     1
 90
        0
176
     1
 40
-0.6
176
     1
 41
-30.0
176
     1
 62
     5
 63
     7
421
 16777215
176
     1
 74
     1
176
     1
 91
        4
176
     1
 64
     7
176
     1
 65
   257
176
     1
 75
     1
176
     1
175
     1
176
     1
 42
1.0
176
     1
 92
        0
176
     1
 66
   257
176
     1
 43
1.0
176
     1
 76
     1
176
     1
 77
     6
176
     1
 78
     2
176
     1
 67
     7
176
     1
 79
     5
176
     1
170
     0
176
     1
171
     0
176
     1
290
     0
176
     1
 93
        1
176
     1
 44
0.0
176
     1
173
     0
176
     1
  0
VISUALSTYLE
  5
32
102
{ACAD_REACTORS
330
2A
102
}
330
2A
100
AcDbVisualStyle
  2
Basic
 70
     7
177
     2
291
     1
 71
     1
176
     1
 72
     0
176
     1
 73
     1
176
     1
 90
        0
176
     1
 40
-0.6
176
     1
 41
-30.0
176
     1
 62
     5
 63
     7
421
 16777215
176
     1
 74
     0
176
     1
 91
        4
176
     1
 64
     7
176
     1
 65
   257
176
     1
 75
     1
176
     1
175
     1
176
     1
 42
1.0
176
     1
 92
        8
176
     1
 66
     7
176
     1
 43
1.0
176
     1
 76
     1
176
     1
 77
     6
176
     1
 78
     2
176
     1
 67
     7
176
     1
 79
     5
176
     1
170
     0
176
     1
171
     0
176
     1
290
     0
176
     1
 93
        1
176
     1
 44
0.0
176
     1
173
     0
176
     1
  0
VISUALSTYLE
  5
36
102
{ACAD_REACTORS
330
2A
102
}
330
2A
100
AcDbVisualStyle
  2
Brighten
 70
    12
177
     2
291
     1
 71
     2
176
     1
 72
     2
176
     1
 73
     0
176
     1
 90
        0
176
     1
 40
-0.6
176
     1
 41
-30.0
176
     1
 62
     5
 63
     7
421
 16777215
176
     1
 74
     1
176
     1
 91
        4
176
     1
 64
     7
176
     1
 65
   257
176
     1
 75
     1
176
     1
175
     1
176
     1
 42
1.0
176
     1
 92
        8
176
     1
 66
     7
176
     1
 43
1.0
176
     1
 76
     1
176
     1
 77
     6
176
     1
 78
     2
176
     1
 67
     7
176
     1
 79
     5
176
     1
170
     0
176
     1
171
     0
176
     1
290
     0
176
     1
 93
        1
176
     1
 44
50.0
176
     1
173
     0
176
     1
  0
VISUALSTYLE
  5
3A
102
{ACAD_REACTORS
330
2A
102
}
330
2A
100
AcDbVisualStyle
  2
ColorChange
 70
    16
177
     2
291
     1
 71
     2
176
     1
 72
     2
176
     1
 73
     3
176
     1
 90
        0
176
     1
 40
-0.6
176
     1
 41
-30.0
176
     1
 62
     5
 63
     8
421
  8421504
176
     1
 74
     1
176
     1
 91
        4
176
     1
 64
     7
176
     1
 65
   257
176
     1
 75
     1
176
     1
175
     1
176
     1
 42
1.0
176
     1
 92
        8
176
     1
 66
     8
424
  8421504
176
     1
 43
1.0
176
     1
 76
     1
176
     1
 77
     6
176
     1
 78
     2
176
     1
 67
     7
176
     1
 79
     5
176
     1
170
     0
176
     1
171
     0
176
     1
290
     0
176
     1
 93
        1
176
     1
 44
0.0
176
     1
173
     0
176
     1
  0
VISUALSTYLE
  5
34
102
{ACAD_REACTORS
330
2A
102
}
330
2A
100
AcDbVisualStyle
  2
Conceptual
 70
     9
177
     2
291
     0
 71
     3
176
     1
 72
     2
176
     1
 73
     0
176
     1
 90
        0
176
     1
 40
-0.6
176
     1
 41
-30.0
176
     1
 62
     5
 63
     7
421
 16777215
176
     1
 74
     2
176
     1
 91
        2
176
     1
 64
     7
176
     1
 65
   257
176
     1
 75
     1
176
     1
175
     1
176
     1
 42
40.0
176
     1
 92
        8
176
     1
 66
     7
176
     1
 43
1.0
176
     1
 76
     1
176
     1
 77
     6
176
     1
 78
     2
176
     1
 67
     7
176
     1
 79
     3
176
     1
170
     0
176
     1
171
     0
176
     1
290
     0
176
     1
 93
        1
176
     1
 44
0.0
176
     1
173
     0
176
     1
  0
VISUALSTYLE
  5
35
102
{ACAD_REACTORS
330
2A
102
}
330
2A
100
AcDbVisualStyle
  2
Dim
 70
    11
177
     2
291
     1
 71
     2
176
     1
 72
     2
176
     1
 73
     0
176
     1
 90
        0
176
     1
 40
-0.6
176
     1
 41
-30.0
176
     1
 62
     5
 63
     7
421
 16777215
176
     1
 74
     1
176
     1
 91
        4
176
     1
 64
     7
176
     1
 65
   257
176
     1
 75
     1
176
     1
175
     1
176
     1
 42
1.0
176
     1
 92
        8
176
     1
 66
     7
176
     1
 43
1.0
176
     1
 76
     1
176
     1
 77
     6
176
     1
 78
     2
176
     1
 67
     7
176
     1
 79
     5
176
     1
170
     0
176
     1
171
     0
176
     1
290
     0
176
     1
 93
        1
176
     1
 44
-50.0
176
     1
173
     0
176
     1
  0
VISUALSTYLE
  5
39
102
{ACAD_REACTORS
330
2A
102
}
330
2A
100
AcDbVisualStyle
  2
Facepattern
 70
    15
177
     2
291
     1
 71
     2
176
     1
 72
     2
176
     1
 73
     0
176
     1
 90
        0
176
     1
 40
-0.6
176
     1
 41
-30.0
176
     1
 62
     5
 63
     7
421
 16777215
176
     1
 74
     1
176
     1
 91
        4
176
     1
 64
     7
176
     1
 65
   257
176
     1
 75
     1
176
     1
175
     1
176
     1
 42
1.0
176
     1
 92
        8
176
     1
 66
     7
176
     1
 43
1.0
176
     1
 76
     1
176
     1
 77
     6
176
     1
 78
     2
176
     1
 67
     7
176
     1
 79
     5
176
     1
170
     0
176
     1
171
     0
176
     1
290
     0
176
     1
 93
        1
176
     1
 44
0.0
176
     1
173
     0
176
     1
  0
VISUALSTYLE
  5
2B
102
{ACAD_REACTORS
330
2A
102
}
330
2A
100
AcDbVisualStyle
  2
Flat
 70
     0
177
     2
291
     1
 71
     2
176
     1
 72
     1
176
     1
 73
     1
176
     1
 90
        2
176
     1
 40
-0.6
176
     1
 41
30.0
176
     1
 62
     5
 63
     7
421
 16777215
176
     1
 74
     0
176
     1
 91
        4
176
     1
 64
     7
176
     1
 65
   257
176
     1
 75
     1
176
     1
175
     1
176
     1
 42
1.0
176
     1
 92
        8
176
     1
 66
     7
176
     1
 43
1.0
176
     1
 76
     1
176
     1
 77
     6
176
     1
 78
     2
176
     1
 67
     7
176
     1
 79
     5
176
     1
170
     0
176
     1
171
     0
176
     1
290
     0
176
     1
 93
       13
176
     1
 44
0.0
176
     1
173
     0
176
     1
  0
VISUALSTYLE
  5
2C
102
{ACAD_REACTORS
330
2A
102
}
330
2A
100
AcDbVisualStyle
  2
FlatWithEdges
 70
     1
177
     2
291
     1
 71
     2
176
     1
 72
     1
176
     1
 73
     1
176
     1
 90
        2
176
     1
 40
-0.6
176
     1
 41
30.0
176
     1
 62
     5
 63
     7
421
 16777215
176
     1
 74
     1
176
     1
 91
        4
176
     1
 64
     7
176
     1
 65
   257
176
     1
 75
     1
176
     1
175
     1
176
     1
 42
1.0
176
     1
 92
        0
176
     1
 66
   257
176
     1
 43
1.0
176
     1
 76
     1
176
     1
 77
     6
176
     1
 78
     2
176
     1
 67
     7
176
     1
 79
     5
176
     1
170
     0
176
     1
171
     0
176
     1
290
     0
176
     1
 93
       13
176
     1
 44
0.0
176
     1
173
     0
176
     1
  0
VISUALSTYLE
  5
2D
102
{ACAD_REACTORS
330
2A
102
}
330
2A
100
AcDbVisualStyle
  2
Gouraud
 70
     2
177
     2
291
     1
 71
     2
176
     1
 72
     2
176
     1
 73
     1
176
     1
 90
        2
176
     1
 40
-0.6
176
     1
 41
30.0
176
     1
 62
     5
 63
     7
421
 16777215
176
     1
 74
     0
176
     1
 91
        4
176
     1
 64
     7
176
     1
 65
   257
176
     1
 75
     1
176
     1
175
     1
176
     1
 42
1.0
176
     1
 92
        0
176
     1
 66
     7
176
     1
 43
1.0
176
     1
 76
     1
176
     1
 77
     6
176
     1
 78
     2
176
     1
 67
     7
176
     1
 79
     5
176
     1
170
     0
176
     1
171
     0
176
     1
290
     0
176
     1
 93
       13
176
     1
 44
0.0
176
     1
173
     0
176
     1
  0
VISUALSTYLE
  5
2E
102
{ACAD_REACTORS
330
2A
102
}
330
2A
100
AcDbVisualStyle
  2
GouraudWithEdges
 70
     3
177
     2
291
     1
 71
     2
176
     1
 72
     2
176
     1
 73
     1
176
     1
 90
        2
176
     1
 40
-0.6
176
     1
 41
30.0
176
     1
 62
     5
 63
     7
421
 16777215
176
     1
 74
     1
176
     1
 91
        4
176
     1
 64
     7
176
     1
 65
   257
176
     1
 75
     1
176
     1
175
     1
176
     1
 42
1.0
176
     1
 92
        0
176
     1
 66
   257
176
     1
 43
1.0
176
     1
 76
     1
176
     1
 77
     6
176
     1
 78
     2
176
     1
 67
     7
176
     1
 79
     5
176
     1
170
     0
176
     1
171
     0
176
     1
290
     0
176
     1
 93
       13
176
     1
 44
0.0
176
     1
173
     0
176
     1
  0
VISUALSTYLE
  5
38
102
{ACAD_REACTORS
330
2A
102
}
330
2A
100
AcDbVisualStyle
  2
Linepattern
 70
    14
177
     2
291
     1
 71
     2
176
     1
 72
     2
176
     1
 73
     0
176
     1
 90
        0
176
     1
 40
-0.6
176
     1
 41
-30.0
176
     1
 62
     5
 63
     7
421
 16777215
176
     1
 74
     1
176
     1
 91
        4
176
     1
 64
     7
176
     1
 65
   257
176
     1
 75
     7
176
     1
175
     7
176
     1
 42
1.0
176
     1
 92
        8
176
     1
 66
     7
176
     1
 43
1.0
176
     1
 76
     1
176
     1
 77
     6
176
     1
 78
     2
176
     1
 67
     7
176
     1
 79
     5
176
     1
170
     0
176
     1
171
     0
176
     1
290
     0
176
     1
 93
        1
176
     1
 44
0.0
176
     1
173
     0
176
     1
  0
VISUALSTYLE
  5
33
102
{ACAD_REACTORS
330
2A
102
}
330
2A
100
AcDbVisualStyle
  2
Realistic
 70
     8
177
     2
291
     0
 71
     2
176
     1
 72
     2
176
     1
 73
     0
176
     1
 90
        0
176
     1
 40
-0.6
176
     1
 41
-30.0
176
     1
 62
     5
 63
     7
421
 16777215
176
     1
 74
     1
176
     1
 91
        0
176
     1
 64
     7
176
     1
 65
   257
176
     1
 75
     1
176
     1
175
     1
176
     1
 42
1.0
176
     1
 92
        8
176
     1
 66
     8
424
  7895160
176
     1
 43
1.0
176
     1
 76
     1
176
     1
 77
     6
176
     1
 78
     2
176
     1
 67
     7
176
     1
 79
     5
176
     1
170
     0
176
     1
171
     0
176
     1
290
     0
176
     1
 93
       13
176
     1
 44
0.0
176
     1
173
     0
176
     1
  0
VISUALSTYLE
  5
37
102
{ACAD_REACTORS
330
2A
102
}
330
2A
100
AcDbVisualStyle
  2
Thicken
 70
    13
177
     2
291
     1
 71
     2
176
     1
 72
     2
176
     1
 73
     0
176
     1
 90
        0
176
     1
 40
-0.6
176
     1
 41
-30.0
176
     1
 62
     5
 63
     7
421
 16777215
176
     1
 74
     1
176
     1
 91
        4
176
     1
 64
     7
176
     1
 65
   257
176
     1
 75
     1
176
     1
175
     1
176
     1
 42
1.0
176
     1
 92
       12
176
     1
 66
     7
176
     1
 43
1.0
176
     1
 76
     1
176
     1
 77
     6
176
     1
 78
     2
176
     1
 67
     7
176
     1
 79
     5
176
     1
170
     0
176
     1
171
     0
176
     1
290
     0
176
     1
 93
        1
176
     1
 44
0.0
176
     1
173
     0
176
     1
  0
ENDSEC
  0
EOF
