<svg id="Layer_1" data-name="Layer 1" xmlns="http://www.w3.org/2000/svg" viewBox="0 0 360 360"><path d="M176.75,76.6c5.17-7.3,7.23-15,8.1-23.16.83-7.89,2.46-15.53,7.1-22.31,3.9-5.69,8.88-8.3,15.82-7.61,8.81.88,16.88,3.28,22.35,12.61a25.45,25.45,0,0,1,2.41,19.33c-5.63,21.38-10.75,42.88-16,64.37a31.46,31.46,0,0,0-.74,3.16c-.13,1-.9,2.23.31,3s2-.12,2.92-.79c2.21-1.66,4.45-3.29,6.69-4.9,12.15-8.69,25-15.88,40-18.4,3.21-.54,5.73-2.61,8-4.77,6.45-6,14-10.26,21.74-14.3a25.79,25.79,0,0,1,5-2c5.38-1.55,11.13-2.88,15.48,1.68,5.54,5.79,7.88,12.91,4,20.66-4.59,9.19-11.24,16.9-18.54,24-10,9.79-21.48,17.66-33.6,24.58a67.39,67.39,0,0,0-27.31,29.15c-3.83,7.64-5.25,15.56-3.18,24.1s4.19,17.24,6.57,25.8c.56,2,1.16,2.25,3,1.32,7.72-4,15.58-7.66,23.26-11.7a43.52,43.52,0,0,1,17-4.62,191.43,191.43,0,0,1,32.83-.2,15.69,15.69,0,0,1,9.43,3.83,10.62,10.62,0,0,1,3.56,8.64c-.09,9.8,1.55,19.71,6.34,28.26a11.24,11.24,0,0,1,1.11,9.28c-2.13,5.78-4.06,11.66-7.73,16.77a8.71,8.71,0,0,1-3.85,3.07c-11.44,4.77-22.4,10.81-34.87,12.8a18.25,18.25,0,0,1-5,.22c-2.15-.24-2.78.06-1.86,2.41a21.53,21.53,0,0,1-1,18.32,10.16,10.16,0,0,1-5,4.85,38.34,38.34,0,0,1-22.81,2.75,10.2,10.2,0,0,1-3.68-1.49c-11-7.06-21.62-14.49-30.49-24.14-1.18-1.28-2.38-1.09-3.75-.86-15,2.49-29.81,5.91-44.63,9.23Q113,323.62,50.17,337.84c-7.63,1.72-14.47.63-19.66-6.14a6.34,6.34,0,0,1-1.11-2.45c-1.95-8.67-4-17.31-5.92-26A15.38,15.38,0,0,1,33,286c4.61-1.66,9.57-2.23,14.35-3.4,44.88-10.91,90.21-19.71,135.4-29.15,3.37-.71,6.71-1.55,10.49-2.43a28,28,0,0,0-12.71-8.26c-3.38-1.08-6.92-1.59-10.22-3-9-3.77-15.49-10.39-21.14-18-2.66-3.59-5.13-7.31-7.58-11a17,17,0,0,0-13.46-7.58c-9.66-.43-19.16-1.79-28.16-5.56A49.17,49.17,0,0,1,79.08,181.1,16.16,16.16,0,0,1,76.22,176C72.91,164,65.53,155,56.08,147.42c-11.22-9-21-19.39-30.39-30.23-3.91-4.52-5.29-9.42-3.13-15,2.3-6,6.64-9.74,13-10.84,6.54-1.14,12.52.62,18.07,4C60.79,99.78,67,105.42,73.7,110.51a128.56,128.56,0,0,0,22.35,13.27c1.38.67,2.08.31,3-.74q13.17-15.63,26.39-31.19c4.17-4.93,4.83-11.13,6.07-17.09,1.55-7.42,2.42-15,5.13-22.15C141.69,39.12,149.66,35.33,164,36.8c3.95.41,8.19,4.73,9,8.78,2,9.59,2.39,19.38,3.46,29.08C176.56,75.12,176.63,75.58,176.75,76.6Zm97.1,146c-1.09,3.32-1.09,3.32-3.78,3.22a4,4,0,0,0-3.3,1c-3,3.66-7.32,4.38-11.55,5.38-1.63.39-3.34.9-4,2.69-2.79,7.39-8.75,10.47-15.94,12.16-28.72,6.72-57.25,14.23-85.76,21.8-29.3,7.79-58.28,16.76-87.91,23.28a3.2,3.2,0,0,0-1.82,1.19c-3.21,4.18-7.69,6.43-12.49,8.16-3.8,1.38-7.63,2.68-11.43,4.06-.77.28-1.83.35-1.84,1.57,0,3.68,4.64,8.28,8.38,8.09a37.1,37.1,0,0,0,13.9-3.82c4.93-2.3,5.91-1.87,7.64,3.38a37.25,37.25,0,0,0,3.76,8.28c1.07-1.62-.22-2.3-.08-3.36a8.14,8.14,0,0,0-1-4.93c-3.5-6.41-4.19-7.66-.65-8.44,12.9-2.85,25.77-5.85,38.65-8.81s25.57-5.9,38.36-8.81c4.56-1,5.51-.41,6.77,4.11a10.8,10.8,0,0,0,.42,1.72c1,2.2-.06,2.82-2.1,3.28q-32.76,7.39-65.48,15c-2.77.64-5.67.94-8.48,2.23a3.39,3.39,0,0,0,3.25.93c14-2,28-3.61,41.89-6,31.79-5.43,63.55-11.14,95.28-16.93,8.51-1.55,17.35-2,25.28-5.86,4.55-2.21,8.8-2.44,13.29-.13,1.65.84,3.52,1.6,5.38.51,1.59-.93,2.5-.52,3.16,1.1.38.91,1,1.72,1.39,2.62.57,1.3,1.27,1.73,2.73,1.11a47.05,47.05,0,0,1,8.77-2.93,68.51,68.51,0,0,0,15.92-5.25c2.29-1.1,3.34-2.43,2.55-5a9.73,9.73,0,0,1-.31-4.75,8.7,8.7,0,0,1,.83.91c1.26,2,1.4,5.18,3.53,5.86s4.58-1.39,7-1.94c2.74-.64,5.38-3.41,8.39-.62.11.09.5.09.56,0,2.12-3.09,5.29-2.13,8.21-2.23a4.69,4.69,0,0,0,1.86-.87c4.08-2.3,6-6.47,8.44-10.1,3.75-5.48,4.24-11.36,1-17.63a20.91,20.91,0,0,1-2.15-7.75c-.37-4.2-2-7.92-3.59-11.73a13,13,0,0,0-7.34-7.32c-4.45-1.78-9.3-1-13.95-1.67-1.14-.16-2.19.76-3,1.68a2.15,2.15,0,0,1-.66.38c-.78-.68-.2-1.87-1.2-2.45-2.48,1.24-4.53,5-8,1.73-.1-.09-.38,0-.58,0-2,.1-3.94.26-5.91.28-1.51,0-1.92.46-1.32,1.95,1.11,2.74,2.08,5.54,3.08,8.32.08.23-.06.54-.09.71-1,.16-1.45-1.12-2.63-.6q2.42,17.22,4.87,34.51a6.55,6.55,0,0,1-.34,4.06c-1,2-3.93,2.43-4.78.69A23.56,23.56,0,0,1,282,261a4.4,4.4,0,0,1,2.68-4.55c1.44-.6,1.56-1.51,1.36-2.8-.42-2.83-.74-5.67-1.15-8.51q-1.17-8.06-2.38-16.1c-.34-2.3-2.37-3.16-4-3.32-1.38-.13-.86,2-1.22,3.12s-.12,2.48-1.1,3.78C275.44,229.39,274.73,226.35,273.85,222.61ZM152,141.4c-1.56,1.31-3.1,2.65-4.68,3.93-5.71,4.62-11.63,6.07-18.1,1.41a6,6,0,0,0-5.68-.71c-7.27,2.69-13.92,1-19.85-3.34-11.44-8.42-23.28-16.31-34.27-25.33q-10.19-8.35-20-17.13c-5.13-4.6-10.5-4.78-16.34-1.81a20,20,0,0,1-1.88.88,5,5,0,0,0-2.93,3.47c-1.63,5.26.31,9.59,3.75,13.28,9.32,10,20.18,16.74,34.57,15.43,1.88-.17,2.53.22,1.92,2.22a38.75,38.75,0,0,0-1.2,5.78c-.38,2.5.74,3.91,3.32,4.23a45.34,45.34,0,0,0,7.09-.06c7.54-.27,10,1.9,11.11,9.51a7.22,7.22,0,0,0,9.62,6.08c2.14-.68,4.2-1.44,6.83-1.06a30.34,30.34,0,0,1-8.42,6.06,36.87,36.87,0,0,0-7.28,4.49A3.9,3.9,0,0,0,88.6,174c1.86,3.6,5,5.47,8.71,6.6a43.43,43.43,0,0,0,17.89,1.27c9.83-1.13,19.49-3.22,27-10.07a15.39,15.39,0,0,1,10.85-4.27c2.37,0,4.74,0,7.11,0,6.43.11,12.8.36,19-2.33A15.19,15.19,0,0,1,197,169.59c2.25,2.77,2.27,3.36.22,4-2.8.91-5.54,2-8.3,3,7.51,0,14.72,1.52,22,2.09,8.87.69,17.35-.23,24.84-5.62,3.73-2.69,3.75-2.64-.11-5l-19.16-11.67c1.93-.77,3.27-1.32,4.61-1.83,3.69-1.41,7.52-2.42,11.06-4.2A16,16,0,0,0,240.8,140c.56-2,.18-2.59-1.83-1.9-4.48,1.53-9,3-13.43,4.6-9.13,3.3-17.92,3.84-26-2.82-.06,0-.19,0-.44,0-.12.51-.26,1.06-.38,1.62-1.38,6.41-4.68,9.05-11.21,9-9.26-.14-21.61-9.57-24.13-18.78-.66-2.43-1.55-2.52-3.6-2A135.86,135.86,0,0,1,146,133.15c-5.86.94-10.45-.86-13.7-6a99.25,99.25,0,0,1-4.78-8.85,33.39,33.39,0,0,0-3.81-6.8c-4.31,8.24-.25,15,2.92,21.72C132.12,144.77,142.15,142.18,152,141.4Zm65.6,56c-.94-2.94-2.46-1.86-3.89-1.29-7.86,3.15-15.74,6.26-23.58,9.48a3.73,3.73,0,0,1-4.06-.4c-4.2-2.94-8.61-5.59-12.73-8.62-2-1.49-2.94-.9-4.15.9-3.61,5.36-3.84,11.44.07,16.84s8.22,10.84,12.62,16c3.69,4.35,8.16,8.32,14,8.54,5,.19,7.08,2.63,8.48,6.65.07.19.19.35.25.54.52,1.5,1.4,1.78,3,1.31,8.7-2.59,17.27-5.49,25.7-8.87,2.18-.87,2.21-1.73,1.4-3.66a120.54,120.54,0,0,1-8.92-38.39c-.25-3.56-1.46-6.89-2.62-10.95l-2.73,5.8C219.52,193.11,218.67,195,217.55,197.37ZM193.85,87.19c1.76,5.13,7.73,12.77,11.79,15.48,1.22.82,1.57,0,2.06-.68a78.43,78.43,0,0,0,6.08-9.8c7.35-14.13,10.65-29.42,12.53-45,1.18-9.87-7-19-17.53-19.44-6.44-.28-13.09,4.9-14.91,11.08a24,24,0,0,0-.66,11.11c1.34,7.4,2.16,14.71,1.23,22.31-.72,6,2.37,9.54,8.07,11.54.9.32,2.16.08,2.8,1.31ZM157.24,42c-6.2-.86-10.12,2.56-13,7.83-3.47,6.35-3.77,13-1.72,19.76,1.69,5.6,3.61,11.15,5.36,16.74a1.71,1.71,0,0,0,1.42,1.2,38.26,38.26,0,0,0,8.49.07A2.57,2.57,0,0,0,160.06,86c4.49-10.2,8.75-20.51,10.37-31.63,1-7.15-3.31-12-10.56-12.33C159.09,42,158.3,42,157.24,42ZM306.36,85.29a22,22,0,0,0-12.56,4.63C285.55,96.68,281,106,277.29,115.71a4.21,4.21,0,0,0,1.69,5.08c4.3,2.66,8.61,4.12,13.57,2a31.38,31.38,0,0,0,10.09-6.56,94.33,94.33,0,0,0,10.61-13.46A16.06,16.06,0,0,0,316,95C316.52,89.53,312.48,85.21,306.36,85.29Zm-70.2,212.94c1.29,1.58,2.24,2.81,3.25,4a80.49,80.49,0,0,0,19.38,15.86,21.09,21.09,0,0,0,10.43,2.8c5.9.2,9.61-2.93,11.95-8s1.19-9.78-1.95-14.18a2.67,2.67,0,0,0-2.31-1C263.52,296.56,250.13,296.21,236.16,298.23ZM189.29,285c.66,2.85,2,3.49,5,2.76,14.94-3.63,29.95-7,45-10.4a11.61,11.61,0,0,0,5-2.84c1.22-1,1.07-1.82.08-2.92-2.75-3.07-6.25-3.11-9.84-2.46-7.28,1.31-14.55,2.67-21.8,4.16-6.95,1.43-13.87,3-20.79,4.6-1.79.41-3.82.82-3.69,4C188.51,282.62,189,283.8,189.29,285Zm-29-2.53c-1.61.31-2.09.73-1.16,2.25s1.81,3.28,2.7,4.93c.32.59.92,1.27.17,1.83s-1.3-.38-1.84-.71a17.5,17.5,0,0,1-2.84-2.24c-2.54-2.43-4-.91-5.43.84s-1,2.89.93,4.11a6.54,6.54,0,0,0,5.35.76c7.12-1.59,14.26-3.1,21.36-4.8,8.58-2.05,9-3,5.38-11a4.39,4.39,0,0,0-.58-.67c-1.69,1.65-3,3.82-5,4.66-2.31,1-3.86-2.18-6.2-2.43-.06.09-.17.19-.16.25.51,2.08,1,4.16,1.78,7.15C170.46,282.6,165.75,281.44,160.29,282.51Zm90.2-15.8c-1,1.69-2.37,3.32-2.68,5.13-.25,1.47,2,1.83,3.08,2.72a13.4,13.4,0,0,0,2,1.14,1,1,0,0,0,1.53-.33c.78-1.43,2.5-3,1.89-4.38-.92-2.1-3.34-3.14-5.14-4.74C250.92,266.43,250.6,266.51,250.49,266.71Z"/></svg>